<?xml version="1.0" standalone="no"?>
<!DOCTYPE svg PUBLIC "-//W3C//DTD SVG 20010904//EN"
 "http://www.w3.org/TR/2001/REC-SVG-20010904/DTD/svg10.dtd">
<svg version="1.0" xmlns="http://www.w3.org/2000/svg"
 width="1232.000000pt" height="1232.000000pt" viewBox="0 0 1232.000000 1232.000000"
 preserveAspectRatio="xMidYMid meet">
<metadata>
Created by potrace 1.11, written by Peter Selinger 2001-2013
</metadata>
<g transform="translate(0.000000,1232.000000) scale(0.100000,-0.100000)"
fill="#000000" stroke="none">
<path d="M5745 12310 c-1094 -83 -2088 -419 -2978 -1007 -350 -231 -659 -484
-962 -787 -1026 -1028 -1636 -2323 -1782 -3786 -25 -250 -25 -885 0 -1130 82
-813 280 -1507 629 -2204 187 -373 472 -818 685 -1068 21 -25 65 -77 97 -117
32 -39 60 -70 62 -68 2 1 -3 33 -11 71 -8 37 -17 102 -20 144 -3 43 -8 91 -10
107 -11 79 -5 418 9 515 39 273 95 518 162 705 25 72 57 163 70 204 23 70 79
205 130 318 13 28 24 54 24 57 0 12 93 214 155 337 65 131 177 310 214 343 12
11 21 25 21 32 0 8 9 19 20 26 11 7 20 20 20 28 0 8 15 27 34 42 34 27 156
183 210 268 109 173 470 569 626 687 74 56 232 146 360 205 143 66 160 75 355
170 94 46 206 99 250 117 44 18 112 50 151 72 40 21 105 52 146 68 40 16 102
48 136 71 55 36 62 44 55 63 -4 12 -7 48 -7 79 1 47 7 64 35 102 18 25 36 46
41 46 4 0 8 27 8 60 0 92 48 170 105 170 40 0 45 12 29 65 -24 81 -4 185 61
315 73 146 163 251 280 325 63 41 89 42 92 5 2 -14 12 -88 23 -165 43 -306 50
-424 26 -454 -6 -8 -10 -63 -10 -140 1 -142 2 -144 97 -275 29 -39 61 -89 72
-111 11 -22 38 -62 60 -90 22 -27 53 -72 69 -99 15 -26 34 -56 42 -65 7 -9 41
-52 75 -96 35 -44 68 -84 76 -88 7 -4 13 -13 13 -20 1 -19 69 -66 114 -78 22
-6 80 -29 128 -51 141 -63 141 -63 218 29 149 178 497 517 572 559 24 13 206
184 398 374 224 222 354 400 386 524 6 25 5 26 -20 16 -22 -8 -26 -7 -27 8 -1
11 -4 8 -9 -8 -4 -14 -9 -20 -9 -15 -1 6 -5 16 -10 24 -8 12 -12 12 -24 2 -13
-10 -16 -8 -22 9 -3 11 -11 18 -16 15 -5 -4 -9 -1 -9 4 0 6 -3 11 -7 11 -5 0
-8 -63 -8 -141 0 -117 -3 -143 -16 -152 -9 -7 -14 -17 -12 -22 2 -6 -17 -32
-42 -59 -40 -44 -50 -63 -46 -88 0 -5 -3 -7 -8 -5 -5 1 -34 -19 -64 -45 -31
-27 -60 -48 -66 -48 -6 0 -11 -3 -11 -8 0 -13 -184 -202 -197 -202 -7 0 -17
-9 -23 -20 -6 -11 -15 -18 -20 -15 -6 3 -7 0 -5 -7 4 -9 -9 -21 -32 -33 -62
-31 -69 -34 -83 -25 -10 6 -5 13 18 27 33 21 33 40 0 22 -18 -10 -124 -6 -135
5 -8 7 44 19 55 12 14 -9 43 29 36 47 -3 9 1 23 9 32 13 13 16 36 8 76 -2 11
-61 4 -61 -8 0 -6 8 -9 19 -6 16 4 19 1 14 -16 -3 -12 -13 -21 -22 -21 -14 0
-14 -2 -1 -10 13 -9 13 -11 0 -20 -9 -6 -18 -6 -24 0 -14 14 -42 12 -58 -4 -8
-7 -28 -15 -47 -18 -29 -4 -32 -3 -27 17 4 17 1 24 -15 28 -27 7 -17 24 27 42
19 8 37 20 40 28 3 9 14 12 28 10 13 -3 27 0 30 6 4 6 16 11 26 11 10 0 20 3
22 8 5 11 66 52 78 52 5 0 10 4 10 9 0 5 9 13 20 16 11 3 20 13 20 20 0 11 8
13 30 9 24 -5 39 1 80 32 27 21 50 42 50 46 0 5 -19 5 -42 2 -39 -6 -41 -5
-23 8 30 22 54 28 61 17 4 -6 11 -6 20 2 9 7 11 15 5 18 -5 3 -11 15 -13 25
-2 14 6 22 32 31 42 14 55 51 19 57 -31 4 -35 26 -7 30 13 2 -5 5 -39 6 -34 1
-65 -3 -68 -8 -10 -16 24 -24 51 -12 19 10 24 9 24 -3 0 -9 -9 -15 -23 -15
-27 0 -62 -33 -53 -49 4 -5 2 -13 -4 -16 -6 -4 -10 -3 -9 2 4 21 -2 33 -17 33
-12 0 -11 5 7 20 23 18 23 19 4 20 -11 0 -28 -9 -37 -19 -11 -13 -24 -18 -37
-14 -32 8 -25 23 10 23 24 0 30 4 27 18 -2 9 -11 16 -21 16 -21 -2 -21 5 -1
34 9 13 13 31 9 42 -5 17 -2 20 23 20 36 0 46 -18 24 -42 -14 -17 -12 -18 27
-18 26 0 40 4 36 10 -3 6 -1 11 4 11 6 1 16 3 21 4 6 1 15 3 21 4 5 0 7 6 4
11 -3 6 -25 10 -49 10 -38 0 -42 2 -41 23 1 18 8 22 38 22 36 1 49 -9 25 -18
-7 -2 1 -2 17 1 58 9 48 20 -25 29 -43 5 -54 3 -62 -10 -13 -25 -35 -21 -40 8
-4 19 -1 25 13 25 9 0 20 8 22 18 4 13 5 11 6 -5 1 -16 7 -23 21 -23 21 0 43
37 32 55 -13 21 -9 33 20 50 20 11 28 23 25 35 -3 13 0 16 16 12 14 -3 18 -1
13 6 -12 20 -31 13 -54 -18 -14 -19 -32 -30 -46 -30 -13 0 -29 -6 -35 -14 -7
-8 -21 -12 -31 -9 -23 6 -27 23 -5 23 8 0 15 4 15 9 0 11 -22 18 -62 20 -60 2
-20 -59 41 -63 16 -1 34 -43 21 -51 -5 -3 -11 -1 -14 3 -3 5 -20 9 -38 10
l-33 1 25 -19 25 -20 -30 1 c-36 0 -65 20 -65 45 0 12 -3 15 -8 8 -7 -10 -29
-18 -96 -31 -25 -5 -27 -4 -18 14 6 10 22 25 36 33 15 7 25 18 23 24 -2 6 5
18 16 27 19 15 19 16 -11 28 -18 8 -33 23 -36 37 -4 16 -14 24 -29 24 -12 0
-30 7 -41 15 -13 10 -24 11 -37 4 -10 -5 -29 -7 -42 -3 -17 4 -26 1 -30 -10
-8 -20 -27 -21 -27 -1 0 8 -10 16 -22 16 -42 3 -53 5 -71 13 -12 6 -24 4 -34
-6 -10 -11 -27 -14 -57 -11 -24 3 -53 0 -65 -7 -28 -15 -102 -22 -116 -11 -5
5 -39 12 -75 16 -36 4 -78 14 -94 22 -16 9 -52 15 -78 15 -33 0 -51 5 -55 14
-3 8 -11 14 -19 14 -8 0 -14 7 -14 15 0 9 -10 14 -27 14 -78 0 -137 16 -113
31 9 6 6 10 -9 15 -11 3 -21 10 -21 15 0 4 -9 10 -20 13 -11 3 -20 1 -20 -4 0
-5 -5 -9 -11 -9 -6 0 -8 8 -5 18 8 24 -42 82 -54 62 -5 -8 -9 -9 -14 -1 -4 6
-2 11 3 11 24 0 9 17 -26 30 -30 10 -34 14 -19 19 16 6 16 8 2 20 -9 7 -16 20
-16 27 0 10 -7 13 -24 8 -13 -3 -29 0 -37 8 -8 8 -22 17 -33 21 -10 4 -16 13
-12 22 3 9 -6 23 -24 35 -17 12 -30 30 -30 40 0 13 -9 22 -25 26 -18 4 -28 15
-32 35 -3 16 -10 32 -14 35 -5 3 -9 19 -9 36 0 17 -8 40 -17 51 -15 16 -15 21
-4 25 7 2 22 13 33 24 19 19 19 20 1 35 -17 14 -17 14 1 9 11 -4 27 0 37 10
18 16 19 16 19 1 0 -10 3 -16 8 -15 4 1 20 -5 36 -13 24 -11 30 -11 34 -1 9
29 47 52 83 52 32 0 40 -5 53 -30 14 -30 14 -31 -10 -40 -27 -11 -32 -37 -9
-46 8 -4 15 -12 15 -19 0 -8 15 -19 34 -26 21 -7 32 -17 29 -25 -3 -8 8 -15
31 -20 20 -3 40 -13 45 -21 4 -8 11 -14 14 -14 26 4 37 -1 37 -15 0 -8 15 -30
33 -48 17 -18 43 -45 56 -60 13 -15 27 -23 30 -17 4 5 13 9 21 9 33 -2 51 2
45 11 -3 5 9 11 27 13 52 5 182 -10 186 -21 2 -5 10 -7 18 -4 8 3 14 -1 14
-11 0 -19 3 -19 52 -6 29 8 35 14 31 30 -6 21 15 28 33 11 13 -14 58 25 50 44
-3 8 -15 15 -26 15 -11 0 -20 4 -20 10 0 5 7 7 15 4 15 -6 75 48 75 67 0 23
-52 31 -226 32 -101 1 -184 5 -184 10 0 4 10 7 23 7 13 0 27 4 33 10 5 5 50
11 99 14 50 2 132 12 183 21 117 20 423 17 459 -5 44 -28 143 28 114 64 -7 9
-6 19 6 36 15 21 15 24 -6 39 -27 21 -18 31 26 31 18 0 33 4 33 10 0 15 29 0
35 -19 8 -28 51 -43 66 -25 8 10 21 13 41 9 15 -4 28 -5 28 -2 0 16 -24 67
-31 67 -18 0 -9 40 9 41 13 0 12 2 -5 9 -15 6 -21 15 -16 25 4 11 -8 29 -38
55 -24 22 -47 40 -51 40 -4 0 -10 9 -13 21 -4 13 -12 18 -22 15 -17 -7 -83 21
-83 35 0 5 -9 9 -19 9 -11 0 -23 9 -26 21 -7 22 -60 49 -94 49 -11 0 -26 6
-33 14 -17 16 -60 15 -71 -2 -5 -7 -2 -26 7 -44 9 -17 16 -35 16 -39 0 -5 14
-30 30 -56 17 -26 30 -57 30 -70 0 -26 30 -48 80 -58 38 -8 62 -23 55 -35 -2
-4 7 -12 21 -19 38 -17 24 -36 -27 -37 -73 -1 -105 -12 -119 -42 -7 -15 -16
-34 -20 -42 -11 -23 -54 -24 -159 -4 -63 12 -133 17 -201 16 -200 -5 -295 -5
-368 0 -40 2 -75 0 -78 -4 -7 -11 -24 -10 -24 2 0 5 18 13 39 16 30 5 38 10
34 22 -5 11 -2 14 10 9 8 -3 21 1 27 9 7 8 20 14 29 14 9 0 22 5 29 12 8 8 51
12 125 13 l112 0 0 49 c1 33 6 52 18 60 12 10 14 15 5 24 -9 9 -4 12 20 12 21
0 36 7 44 20 7 11 19 20 26 20 24 0 101 51 107 71 6 19 -1 33 -40 74 -5 6 -26
17 -45 25 -19 7 -41 18 -48 23 -20 16 -102 13 -113 -4 -7 -12 -9 -12 -9 1 0
35 -42 55 -120 57 -89 2 -113 7 -142 27 -27 19 -38 20 -38 4 0 -7 -22 -33 -48
-58 -35 -33 -56 -46 -72 -43 -23 3 -49 -20 -50 -45 0 -7 -6 -20 -14 -28 -8 -7
-12 -22 -9 -33 5 -20 -4 -22 -40 -6 -16 7 -100 -25 -117 -44 -9 -10 -49 -31
-60 -31 -6 0 -24 -13 -40 -30 -16 -16 -36 -30 -45 -30 -8 0 -15 -6 -15 -13 0
-15 -34 -35 -65 -38 -47 -6 -125 25 -125 48 0 9 -19 13 -62 13 -38 0 -58 -4
-50 -9 10 -6 9 -10 -7 -14 -12 -3 -24 0 -28 5 -3 7 -1 8 5 4 7 -4 12 -3 12 2
0 5 -14 12 -31 16 -41 8 -58 27 -55 64 1 19 -3 33 -12 37 -11 4 -12 26 -7 112
4 60 8 144 9 188 2 87 26 155 55 155 9 0 42 -14 75 -30 55 -28 96 -37 189 -39
44 -1 49 -17 7 -26 -16 -4 -30 -11 -30 -17 0 -7 47 -9 148 -5 153 6 259 30
340 78 18 10 34 19 35 19 1 0 2 -21 3 -46 0 -38 4 -47 25 -58 14 -7 23 -19 21
-29 -2 -9 -1 -17 2 -17 14 0 56 25 56 33 0 5 -7 4 -15 -3 -19 -16 -34 -5 -17
12 18 18 15 26 -10 30 -25 3 -27 24 -5 68 16 32 37 49 63 50 11 0 24 3 28 8 4
4 13 7 19 7 14 0 29 55 20 75 -32 75 -14 183 34 195 21 5 24 10 19 30 -5 18
-2 25 8 25 21 0 40 27 24 33 -7 3 -1 6 13 6 17 1 40 -12 66 -36 22 -21 58 -55
81 -76 23 -21 44 -50 48 -65 3 -15 7 -38 10 -51 7 -33 101 -123 154 -148 25
-11 65 -30 91 -41 91 -41 263 -57 293 -26 9 8 44 19 78 23 61 8 59 9 -47 11
-60 2 -99 5 -85 7 46 7 57 15 32 22 -33 9 -29 24 10 36 18 6 38 13 45 18 7 4
59 7 116 5 92 -1 107 1 125 18 39 36 33 65 -20 99 -25 16 -48 38 -51 48 -3 9
-14 17 -25 17 -11 0 -23 7 -26 16 -3 9 -13 14 -21 10 -8 -3 -17 -1 -21 5 -3 6
-12 8 -20 5 -8 -3 -24 -2 -36 3 -21 8 -21 8 5 15 15 3 27 13 27 22 0 12 7 14
35 8 23 -4 35 -2 35 5 0 6 -10 11 -22 12 -13 0 -17 3 -10 6 21 8 13 20 -11 16
-14 -3 -31 2 -40 11 -8 9 -30 16 -48 16 -27 0 -30 2 -19 15 9 11 9 15 1 15 -9
0 -9 5 0 21 7 14 7 19 0 15 -5 -4 -19 1 -31 11 -11 10 -28 19 -38 20 -45 5
-97 17 -102 23 -8 11 -200 18 -200 8 0 -5 -9 -7 -19 -3 -15 5 -21 0 -26 -25
-7 -34 -29 -39 -45 -11 -8 16 -16 18 -37 12 -16 -4 -34 -6 -42 -3 -7 2 -17 -1
-21 -8 -6 -9 -12 -9 -28 1 -18 11 -24 10 -40 -4 -11 -10 -34 -19 -53 -20 -19
-1 -37 -6 -41 -12 -5 -7 -14 -6 -28 3 -25 15 -33 15 -24 0 5 -8 2 -9 -11 -4
-10 4 -21 2 -25 -5 -5 -8 -15 -6 -34 6 -19 13 -30 15 -39 6 -14 -11 -77 6 -77
21 0 5 -10 3 -21 -4 -17 -10 -23 -10 -26 0 -6 15 -33 16 -33 1 0 -8 -4 -8 -12
-2 -7 5 -30 10 -51 10 -21 1 -43 5 -50 11 -7 5 -66 8 -137 6 -115 -3 -147 -5
-253 -18 -50 -5 -97 -25 -97 -40 0 -38 -85 -73 -85 -36 0 8 -3 20 -7 25 -3 6
-2 19 1 29 10 26 -10 66 -32 66 -14 0 -17 5 -12 20 5 15 2 20 -11 20 -13 0
-15 6 -10 31 5 25 3 30 -9 25 -18 -6 -34 27 -34 71 -1 124 1 167 9 189 6 14
10 43 10 64 0 40 28 98 65 136 25 25 65 37 66 21 0 -7 3 -5 7 4 12 28 69 87
91 94 11 3 21 13 21 21 0 8 7 17 15 20 8 4 15 12 15 19 0 8 8 12 20 10 11 -2
20 0 20 5 0 5 8 16 18 26 9 10 17 22 17 28 0 6 7 11 15 11 8 0 19 6 23 13 4 6
15 12 22 12 8 0 15 5 15 10 0 6 11 10 24 10 13 0 36 7 52 14 15 8 32 13 36 10
5 -3 30 -7 56 -8 90 -5 197 -19 208 -28 6 -4 38 -8 70 -6 33 1 78 -2 102 -6
26 -5 47 -4 55 3 7 5 33 13 57 17 25 4 50 10 55 14 6 5 21 8 35 9 47 1 65 4
76 13 7 5 43 9 80 9 38 1 74 4 79 8 19 15 195 34 252 27 53 -6 141 -32 153
-45 3 -4 14 -8 25 -10 39 -6 161 -102 309 -243 91 -87 136 -119 156 -113 23 7
51 -46 56 -106 3 -32 1 -49 -5 -45 -5 4 -12 -2 -15 -11 -13 -43 -46 -219 -46
-244 0 -15 -4 -30 -9 -33 -31 -19 -6 -206 44 -331 14 -34 25 -69 25 -79 0 -10
11 -51 25 -91 13 -41 27 -89 30 -107 10 -62 17 -93 32 -145 l14 -53 29 22 c16
11 36 18 44 15 12 -5 16 0 16 21 0 61 60 88 116 54 55 -35 74 -94 74 -230 0
-80 5 -136 16 -173 21 -70 14 -151 -22 -250 -15 -41 -29 -102 -31 -136 -4 -49
-10 -67 -30 -87 -35 -35 -114 -60 -168 -52 l-43 7 -15 -43 c-48 -133 -60 -179
-62 -240 l-3 -67 30 -7 c17 -3 49 -23 72 -44 23 -20 57 -45 76 -55 19 -10 45
-26 58 -36 13 -10 43 -21 66 -24 24 -4 70 -22 102 -39 56 -31 61 -37 92 -112
18 -43 43 -92 56 -109 12 -16 30 -48 41 -70 10 -22 28 -53 40 -70 13 -16 32
-49 44 -72 16 -33 42 -56 108 -101 108 -71 128 -105 142 -240 9 -80 14 -98 36
-119 37 -37 48 -86 41 -183 -12 -164 -12 -164 13 -198 12 -18 57 -53 99 -78
42 -24 88 -53 102 -63 48 -36 553 -297 820 -424 63 -30 138 -70 167 -89 54
-35 226 -191 350 -317 98 -100 255 -321 399 -561 133 -222 198 -321 244 -370
41 -45 70 -98 70 -129 0 -9 12 -29 26 -46 90 -104 179 -288 240 -500 51 -175
162 -605 194 -755 21 -96 130 -641 130 -650 0 -11 100 144 203 315 452 749
738 1611 837 2515 41 377 41 903 0 1280 -110 1010 -442 1929 -1002 2776 -369
558 -877 1096 -1420 1505 -752 566 -1614 950 -2528 1128 -402 78 -656 102
-1115 106 -203 2 -419 0 -480 -5z m1296 -1179 c-10 -7 -5 -11 18 -16 17 -3 34
-11 37 -17 4 -6 -1 -8 -15 -3 -11 3 -34 7 -51 7 -34 1 -39 12 -12 27 21 13 43
14 23 2z m24 -69 c-6 -7 -65 9 -65 17 0 5 15 3 34 -3 19 -6 33 -12 31 -14z
m42 2 c-3 -3 -12 -4 -19 -1 -8 3 -5 6 6 6 11 1 17 -2 13 -5z m-20 -40 c31 -19
49 -19 33 1 -16 19 -1 19 27 0 12 -8 28 -12 37 -9 9 3 16 1 16 -6 0 -6 -6 -8
-12 -4 -7 4 -3 -4 10 -18 14 -16 30 -24 41 -21 13 3 26 -6 42 -29 13 -18 30
-38 39 -45 13 -11 12 -12 -5 -12 -11 0 -33 14 -50 31 -38 40 -144 88 -192 88
-41 0 -50 5 -72 33 -14 18 -13 18 25 12 21 -4 49 -13 61 -21z m28 -64 c3 -5 2
-10 -4 -10 -5 0 -13 5 -16 10 -3 6 -2 10 4 10 5 0 13 -4 16 -10z m149 -69 c-2
-2 4 -13 13 -23 16 -18 16 -19 -11 -8 -16 6 -42 20 -57 31 -19 13 -36 18 -50
14 -11 -4 -18 -9 -15 -12 3 -4 1 -12 -5 -19 -9 -11 -18 -8 -48 14 -62 46 -77
62 -59 62 8 0 29 -5 46 -11 25 -8 36 -8 53 4 19 14 26 13 79 -16 32 -18 56
-34 54 -36z m-158 -46 c16 -12 16 -14 3 -15 -9 0 -22 7 -29 15 -16 19 0 19 26
0z m89 -25 c10 -11 16 -20 13 -20 -3 0 -13 9 -23 20 -10 11 -16 20 -13 20 3 0
13 -9 23 -20z m188 -13 c43 -29 26 -31 -29 -2 -59 32 -61 34 -27 27 15 -3 41
-14 56 -25z m-48 -25 c-3 -3 -11 0 -18 7 -9 10 -8 11 6 5 10 -3 15 -9 12 -12z
m-215 -2 c8 -5 11 -10 5 -10 -5 0 -17 5 -25 10 -8 5 -10 10 -5 10 6 0 17 -5
25 -10z m334 -61 c6 -5 -4 -5 -24 1 -18 5 -35 12 -39 16 -9 10 53 -6 63 -17z
m1 -69 c3 -6 -1 -7 -9 -4 -18 7 -21 14 -7 14 6 0 13 -4 16 -10z m-94 -17 c13
-16 12 -17 -3 -4 -17 13 -22 21 -14 21 2 0 10 -8 17 -17z m-28 -27 c8 -8 23
-16 33 -18 17 -3 63 -61 64 -80 0 -8 -35 21 -109 91 -25 24 -36 38 -24 32 12
-6 28 -17 36 -25z m197 13 c0 -6 -4 -7 -10 -4 -5 3 -10 11 -10 16 0 6 5 7 10
4 6 -3 10 -11 10 -16z m-3470 -671 c0 -7 -5 -6 -13 1 -8 6 -16 9 -18 7 -2 -2
-4 7 -4 20 l0 25 18 -22 c9 -11 17 -26 17 -31z m2090 -8 c0 -5 -2 -10 -4 -10
-3 0 -8 5 -11 10 -3 6 -1 10 4 10 6 0 11 -4 11 -10z m-3955 -310 c0 -19 -41
-25 -60 -10 -22 18 -8 32 28 28 20 -2 32 -8 32 -18z m-768 -140 c23 -6 45 -15
48 -21 4 -5 -4 -26 -17 -44 -27 -40 -68 -46 -106 -17 -22 17 -22 19 -7 50 9
17 13 37 9 43 -4 7 0 9 12 6 11 -3 38 -11 61 -17z m3429 -206 c18 -44 13 -52
-20 -30 -34 22 -51 20 -69 -6 -8 -13 -18 -20 -22 -16 -4 4 -2 14 5 23 7 8 9
15 4 15 -5 0 4 11 20 25 41 35 64 32 82 -11z m-86 -203 c0 -18 25 -43 53 -54
11 -4 17 -1 17 8 0 7 7 21 16 29 8 9 13 16 9 16 -3 0 -1 9 5 20 15 28 25 25
40 -10 14 -33 6 -146 -11 -166 -5 -6 -11 -33 -13 -60 -4 -42 0 -54 25 -86 23
-29 32 -53 39 -110 5 -40 13 -93 18 -118 5 -25 8 -63 7 -85 -1 -22 3 -43 8
-47 18 -11 -36 -19 -68 -10 -24 7 -29 13 -27 31 3 19 0 22 -15 17 -26 -8 -44
27 -41 79 0 22 -8 65 -20 95 -11 30 -28 114 -37 185 -9 72 -22 157 -29 190
-15 77 -11 121 10 104 8 -6 14 -19 14 -28z m1554 -30 c7 -11 -39 -20 -65 -14
-10 3 -19 9 -19 14 0 12 77 12 84 0z m-3049 -171 c3 -5 -1 -10 -9 -10 -9 0
-16 -6 -17 -12 0 -7 -4 -4 -9 7 -7 17 -9 17 -9 3 -1 -21 -21 -24 -21 -4 0 8
-6 17 -12 19 -7 3 6 6 29 6 23 1 45 -3 48 -9z m-52 -47 c-10 -3 -9 -8 2 -19 8
-9 19 -13 24 -9 5 3 13 0 17 -6 5 -9 -2 -10 -26 -6 -18 4 -44 7 -57 7 -31 0
-26 22 8 31 28 8 49 10 32 2z m2437 -94 c0 -18 -33 -5 -36 13 -2 15 1 16 17 8
10 -6 19 -15 19 -21z m-79 1 c25 -14 25 -40 -1 -40 -11 0 -20 4 -20 9 0 5 -9
11 -21 14 -12 3 -18 10 -14 16 8 14 31 14 56 1z m-2007 -192 c-12 -19 -47 3
-39 25 6 14 8 14 25 -1 11 -8 17 -19 14 -24z m2250 -24 c9 -3 16 -12 16 -20 0
-8 3 -14 8 -15 4 0 14 -2 22 -4 8 -2 26 -6 39 -9 14 -3 29 -11 35 -17 8 -9 5
-10 -14 -5 -14 4 -36 10 -50 13 -42 9 -79 27 -73 36 3 5 -1 13 -8 18 -16 10 1
12 25 3z m-2757 -55 c5 -5 8 -20 6 -32 -4 -18 -11 -23 -31 -21 -37 2 -39 3
-22 14 10 6 11 10 3 10 -9 0 -7 7 4 20 20 23 25 24 40 9z m-616 -36 c11 -11
10 -13 -1 -14 -8 0 -24 -2 -35 -4 -11 -3 -42 -7 -70 -10 -27 -3 -59 -7 -70 -9
-29 -4 -45 4 -45 23 0 10 2 20 4 22 11 11 206 3 217 -8z m3564 7 c3 -5 -3 -10
-14 -10 -12 0 -21 5 -21 10 0 6 6 10 14 10 8 0 18 -4 21 -10z m235 -40 c0 -5
-2 -10 -4 -10 -3 0 -8 5 -11 10 -3 6 -1 10 4 10 6 0 11 -4 11 -10z m-4240 -29
c0 -6 -4 -13 -10 -16 -5 -3 -10 1 -10 9 0 9 5 16 10 16 6 0 10 -4 10 -9z
m3457 -137 c-3 -3 -12 -4 -19 -1 -8 3 -5 6 6 6 11 1 17 -2 13 -5z m-4100 -35
c16 -16 5 -39 -18 -39 -20 0 -23 8 -13 34 7 19 16 20 31 5z m3953 -239 c-8 -5
-17 -7 -19 -4 -3 3 1 9 9 14 8 5 17 7 19 4 3 -3 -1 -9 -9 -14z m28 -47 c10
-10 27 -23 38 -30 18 -11 18 -12 -2 -12 -11 -1 -33 13 -49 29 -30 32 -18 43
13 13z m1319 1 c-3 -3 -12 -4 -19 -1 -8 3 -5 6 6 6 11 1 17 -2 13 -5z m-1187
-99 c-10 -12 -7 -15 17 -20 35 -8 71 -27 75 -40 2 -5 -12 -11 -31 -13 -31 -3
-33 -2 -22 12 12 14 10 16 -17 16 -29 0 -58 21 -45 33 3 4 0 7 -8 8 -8 0 -6 4
6 9 30 13 39 12 25 -5z m70 5 c0 -13 -11 -13 -30 0 -12 8 -11 10 8 10 12 0 22
-4 22 -10z m1455 -40 c3 -5 -1 -10 -9 -10 -9 0 -16 5 -16 10 0 6 4 10 9 10 6
0 13 -4 16 -10z m-153 -76 c29 -15 30 -18 15 -29 -9 -7 -17 -17 -17 -23 0 -6
-6 -13 -12 -15 -8 -3 -6 -6 5 -6 10 -1 27 8 39 19 30 28 36 17 7 -12 -20 -20
-30 -23 -58 -17 -19 4 -40 5 -48 2 -16 -6 -16 -1 -1 32 12 26 32 33 43 15 7
-11 25 -4 25 10 0 9 -39 25 -52 22 -5 -1 -8 3 -8 8 0 15 27 12 62 -6z m-117
-34 c17 -7 14 -9 -13 -9 -20 -1 -31 3 -27 9 7 12 13 12 40 0z m-1110 -20 c3
-5 20 -8 37 -6 l32 4 -25 -18 c-26 -21 -26 -21 16 -44 l30 -16 -30 6 c-16 4
-34 11 -39 15 -6 5 -18 9 -28 9 -21 0 -23 11 -6 28 9 9 8 12 -6 12 -9 0 -14 5
-11 10 8 13 22 13 30 0z m145 -40 c0 -5 -4 -10 -10 -10 -5 0 -10 5 -10 10 0 6
5 10 10 10 6 0 10 -4 10 -10z m80 -10 c0 -5 -4 -10 -9 -10 -6 0 -13 5 -16 10
-3 6 1 10 9 10 9 0 16 -4 16 -10z m-40 -24 c0 -11 -19 -15 -25 -6 -3 5 1 10 9
10 9 0 16 -2 16 -4z m160 -6 c0 -5 -4 -10 -10 -10 -5 0 -10 5 -10 10 0 6 5 10
10 10 6 0 10 -4 10 -10z m910 -20 l35 -19 -32 -1 c-18 0 -33 -4 -33 -10 0 -5
-7 -10 -15 -10 -8 0 -15 4 -15 9 0 4 -17 15 -37 23 l-38 15 43 -5 c27 -3 42
-1 42 7 0 15 9 13 50 -9z m-980 -6 c0 -10 -6 -14 -15 -10 -9 3 -15 0 -15 -9 0
-8 -5 -15 -12 -15 -9 0 -9 -3 0 -12 10 -10 15 -10 22 2 11 17 17 13 21 -15 5
-28 -36 -68 -62 -60 -10 4 -19 15 -19 27 0 16 -5 19 -21 15 -13 -3 -19 -1 -16
6 2 7 -12 22 -32 34 -34 22 -35 23 -11 24 23 0 23 1 5 9 -16 7 -14 9 15 9 26
1 31 -2 20 -9 -13 -9 -13 -11 0 -20 22 -14 67 -13 53 1 -20 20 -3 39 33 39 25
0 34 -4 34 -16z m53 -6 c4 -10 8 -10 15 1 6 8 12 9 16 3 3 -5 -1 -12 -9 -16
-17 -6 -20 -52 -5 -59 6 -3 5 -4 -2 -3 -7 1 -14 12 -16 24 -2 12 -8 22 -13 22
-5 0 -9 9 -9 20 0 22 15 27 23 8z m106 -2 c10 -12 8 -13 -8 -9 -12 3 -21 9
-21 14 0 14 16 11 29 -5z m669 -6 c-10 -16 -10 -24 0 -40 16 -25 -3 -28 -30
-3 -23 20 -23 39 0 52 30 18 44 14 30 -9z m-698 -39 c0 -12 -28 -22 -34 -12
-3 5 -3 11 1 15 9 9 33 7 33 -3z m775 0 c8 -14 -10 -22 -30 -15 -13 5 -14 8
-3 15 17 11 26 11 33 0z m90 -11 c3 -5 12 -7 19 -4 8 3 17 1 21 -5 8 -15 -11
-14 -65 3 -43 14 -43 15 -13 15 17 1 34 -3 38 -9z m175 -7 c-14 -3 -28 -10
-31 -15 -4 -6 -12 -7 -19 -3 -18 11 8 25 45 23 27 -1 28 -1 5 -5z m-180 -23
c20 -6 21 -8 5 -8 -11 0 -31 4 -45 8 -20 6 -21 8 -5 8 11 0 31 -4 45 -8z m-45
-20 c3 -5 1 -10 -4 -10 -6 0 -11 5 -11 10 0 6 2 10 4 10 3 0 8 -4 11 -10z m92
-48 c16 -20 10 -26 -14 -14 -18 10 -119 8 -154 -3 -10 -4 -19 -2 -19 3 0 11
34 22 73 22 15 0 27 5 27 10 0 16 73 1 87 -18z m-1022 -2 c4 -6 -6 -10 -22
-10 -22 0 -25 2 -13 10 19 12 27 12 35 0z m915 -50 c0 -5 -10 -10 -22 -10 -13
0 -34 -3 -48 -6 -24 -5 -24 -5 -6 10 22 18 76 22 76 6z m110 0 c0 -5 -9 -10
-21 -10 -11 0 -17 5 -14 10 3 6 13 10 21 10 8 0 14 -4 14 -10z m-75 -20 c4 -6
-5 -10 -20 -10 -15 0 -24 4 -20 10 3 6 12 10 20 10 8 0 17 -4 20 -10z m-87
-58 c6 -18 -82 -57 -104 -47 -16 8 -15 9 9 13 16 2 30 10 33 18 2 8 6 21 9 29
5 17 46 7 53 -13z m-222 -177 c-2 -14 -16 -22 -16 -10 0 3 0 10 0 15 0 6 4 10
9 10 5 0 8 -7 7 -15z m-5121 -115 c3 -5 -1 -10 -9 -10 -8 0 -18 5 -21 10 -3 6
1 10 9 10 8 0 18 -4 21 -10z m-395 -720 c0 -5 -2 -10 -4 -10 -3 0 -8 5 -11 10
-3 6 -1 10 4 10 6 0 11 -4 11 -10z m660 -414 c10 -19 24 -26 63 -31 34 -5 45
-10 36 -16 -11 -7 -10 -9 4 -9 9 0 17 -4 17 -9 0 -6 -19 -9 -42 -8 -37 2 -44
-1 -56 -25 -9 -21 -21 -28 -41 -28 -15 0 -32 -5 -39 -12 -9 -9 -12 -8 -12 5 0
10 -6 17 -13 15 -7 -2 -25 9 -40 24 -15 15 -34 31 -42 36 -14 7 -14 13 -4 35
6 14 15 24 19 22 4 -2 16 2 26 10 10 8 40 15 65 15 38 0 48 -4 59 -24z m-213
-152 c-3 -3 -12 -4 -19 -1 -8 3 -5 6 6 6 11 1 17 -2 13 -5z"/>
<path d="M4820 8718 c0 -22 34 -62 49 -57 8 3 1 17 -19 38 -19 23 -30 29 -30
19z"/>
<path d="M5395 10320 c3 -5 10 -10 16 -10 5 0 9 5 9 10 0 6 -7 10 -16 10 -8 0
-12 -4 -9 -10z"/>
<path d="M6875 9930 c-3 -5 1 -10 10 -10 9 0 13 5 10 10 -3 6 -8 10 -10 10 -2
0 -7 -4 -10 -10z"/>
<path d="M7065 9800 c-3 -5 1 -10 9 -10 9 0 16 5 16 10 0 6 -4 10 -9 10 -6 0
-13 -4 -16 -10z"/>
<path d="M5910 9379 c0 -5 5 -7 10 -4 6 3 10 8 10 11 0 2 -4 4 -10 4 -5 0 -10
-5 -10 -11z"/>
<path d="M7603 9341 c-26 -22 -30 -41 -9 -41 8 0 28 -11 44 -25 17 -14 35 -25
41 -25 16 0 13 62 -5 88 -18 27 -41 28 -71 3z"/>
<path d="M7514 9048 c14 -110 19 -133 32 -145 14 -15 28 -18 20 -4 -3 5 1 14
9 21 27 22 16 79 -28 143 -27 40 -40 34 -33 -15z"/>
<path d="M6750 8836 c0 -9 30 -14 35 -6 4 6 -3 10 -14 10 -12 0 -21 -2 -21 -4z"/>
<path d="M5630 8411 c0 -21 26 -36 36 -20 9 15 -3 39 -21 39 -8 0 -15 -9 -15
-19z"/>
<path d="M5950 8344 c0 -8 5 -12 10 -9 6 3 10 10 10 16 0 5 -4 9 -10 9 -5 0
-10 -7 -10 -16z"/>
<path d="M5662 8169 c2 -7 10 -15 17 -17 8 -3 12 1 9 9 -2 7 -10 15 -17 17 -8
3 -12 -1 -9 -9z"/>
<path d="M5670 8130 c-8 -5 -11 -12 -7 -16 4 -4 13 -2 19 4 15 15 7 24 -12 12z"/>
<path d="M7414 7983 c6 -97 24 -139 40 -97 6 16 8 16 24 0 24 -20 32 -20 32 1
0 15 2 14 15 -3 9 -12 14 -14 15 -6 0 7 5 10 10 7 6 -4 -10 22 -34 57 -24 35
-58 71 -75 81 l-30 18 3 -58z"/>
<path d="M6780 7946 c0 -2 7 -6 15 -10 8 -3 15 -1 15 4 0 6 -7 10 -15 10 -8 0
-15 -2 -15 -4z"/>
<path d="M6754 7908 c3 -13 6 -27 6 -32 0 -5 7 -3 15 4 11 9 12 16 2 31 -16
26 -31 24 -23 -3z"/>
<path d="M6875 7780 c-3 -5 -2 -10 4 -10 5 0 13 5 16 10 3 6 2 10 -4 10 -5 0
-13 -4 -16 -10z"/>
<path d="M7070 7775 c0 -8 5 -15 11 -15 6 0 8 -9 4 -20 -3 -11 -2 -20 3 -20
11 0 23 50 15 62 -8 14 -33 8 -33 -7z"/>
<path d="M6930 7200 c0 -5 9 -10 20 -10 11 0 20 5 20 10 0 6 -9 10 -20 10 -11
0 -20 -4 -20 -10z"/>
<path d="M6830 7116 c0 -13 29 -31 37 -23 2 2 1 12 -3 21 -8 20 -34 21 -34 2z"/>
<path d="M6810 6970 c0 -5 5 -10 10 -10 6 0 10 5 10 10 0 6 -4 10 -10 10 -5 0
-10 -4 -10 -10z"/>
<path d="M4981 6953 c0 -4 4 -17 9 -28 8 -19 9 -19 9 2 1 12 -3 25 -9 28 -5 3
-10 3 -9 -2z"/>
<path d="M5230 6632 c0 -28 66 -212 101 -280 37 -71 69 -114 69 -93 0 6 7 11
15 11 21 0 19 5 -14 54 -17 24 -35 65 -42 92 -6 27 -22 72 -35 99 -25 53 -93
138 -94 117z"/>
<path d="M4800 6420 c0 -5 5 -10 10 -10 6 0 10 5 10 10 0 6 -4 10 -10 10 -5 0
-10 -4 -10 -10z"/>
<path d="M4824 6399 c-7 -13 142 -159 163 -159 6 0 15 -9 18 -20 3 -11 12 -20
19 -20 7 0 22 -11 32 -25 22 -29 36 -33 27 -7 -10 25 -76 98 -139 152 -79 68
-113 90 -120 79z"/>
<path d="M6442 6374 c-34 -23 -45 -50 -31 -76 11 -21 12 -21 31 15 15 29 24
37 46 37 53 0 80 -42 58 -92 -6 -13 -4 -18 7 -18 29 0 55 60 42 99 -14 45
-108 67 -153 35z m85 -10 c-3 -3 -12 -4 -19 -1 -8 3 -5 6 6 6 11 1 17 -2 13
-5z"/>
<path d="M5723 6353 c9 -2 25 -2 35 0 9 3 1 5 -18 5 -19 0 -27 -2 -17 -5z"/>
<path d="M5707 6323 c-14 -13 -7 -24 9 -15 9 5 26 7 37 4 14 -3 18 -1 13 6 -8
13 -48 16 -59 5z"/>
<path d="M5652 6221 c12 -20 58 -46 58 -33 0 13 -15 29 -37 41 -30 16 -35 14
-21 -8z"/>
<path d="M6110 6140 c0 -5 -7 -7 -15 -4 -11 5 -13 2 -9 -10 4 -11 0 -16 -14
-16 -15 0 -19 -5 -15 -20 8 -30 25 -24 55 20 21 30 24 40 13 40 -8 0 -15 -4
-15 -10z"/>
<path d="M4576 4424 c-9 -8 -16 -20 -16 -25 0 -6 7 -3 16 5 19 19 36 20 52 4
33 -33 -10 -86 -54 -66 -31 15 -39 5 -21 -24 14 -21 13 -32 -6 -119 -30 -133
-36 -139 -154 -139 -87 0 -96 2 -117 25 -27 29 -67 33 -87 8 -13 -15 -11 -16
14 -9 28 7 67 -7 67 -24 0 -6 -9 -19 -21 -31 -16 -16 -29 -20 -50 -15 -32 6
-38 -4 -13 -25 13 -11 23 -9 62 12 41 23 56 25 120 21 39 -2 72 -7 72 -10 0
-3 -15 -22 -33 -42 -31 -32 -35 -45 -50 -141 -9 -58 -22 -152 -28 -210 -13
-111 -21 -132 -43 -109 -14 16 -76 169 -76 188 0 6 -13 10 -29 10 -15 -1 -34
2 -41 7 -8 5 -11 2 -8 -11 1 -9 16 -25 32 -33 22 -13 39 -42 79 -136 56 -131
60 -162 47 -374 -3 -58 -1 -85 6 -88 13 -4 19 45 34 292 13 200 56 520 76 560
8 17 44 62 80 100 36 39 67 79 69 90 2 11 9 54 16 95 15 95 16 97 43 104 38 9
61 87 34 114 -17 17 -54 15 -72 -4z"/>
<path d="M6444 4342 c-44 -42 -92 -85 -105 -95 -23 -18 -23 -18 -2 -14 12 3
30 -1 41 -9 23 -16 32 -9 32 23 0 30 77 113 105 113 14 0 30 -18 52 -55 l31
-54 -19 -117 c-33 -197 -99 -636 -99 -661 0 -24 -14 -30 -80 -35 -30 -3 -48
-18 -146 -127 l-112 -124 -17 -116 c-16 -108 -37 -226 -46 -261 -3 -10 3 -15
16 -15 17 0 21 14 37 135 10 74 22 158 26 187 6 48 15 60 102 156 52 58 105
110 118 116 13 6 56 11 96 11 69 0 73 -1 94 -30 24 -32 57 -39 93 -20 23 13
44 53 53 102 8 46 -12 68 -61 68 -28 0 -42 -8 -67 -35 -34 -36 -76 -47 -76
-19 0 8 5 45 10 82 6 37 21 148 35 247 27 194 59 405 69 445 4 17 -2 38 -18
65 -14 22 -34 57 -46 78 -11 20 -24 37 -28 37 -4 0 -43 -35 -88 -78z m232
-870 c6 -4 15 -17 18 -30 14 -44 -77 -85 -112 -50 -41 41 44 113 94 80z"/>
<path d="M5152 4318 c-7 -7 -12 -16 -12 -22 0 -6 5 -5 12 2 19 19 66 14 80 -8
16 -25 28 -26 28 0 0 35 -80 56 -108 28z"/>
<path d="M7082 4297 c-9 -11 -2 -13 39 -13 30 0 48 4 46 10 -5 17 -72 19 -85
3z"/>
<path d="M5228 4239 c-22 -23 -51 -24 -73 -3 -21 22 -33 9 -12 -13 14 -16 14
-27 1 -104 -18 -117 -21 -122 -103 -214 -40 -44 -74 -89 -76 -100 -25 -124
-26 -156 -5 -214 l22 -58 -21 -144 c-19 -139 -36 -269 -62 -467 -11 -88 -8
-122 10 -93 5 7 11 45 15 84 6 66 14 128 66 491 18 127 18 130 -2 185 -19 55
-19 77 -1 180 4 22 30 61 82 120 l77 87 19 107 c18 103 20 108 52 127 18 11
33 26 33 35 0 18 -1 18 -22 -6z"/>
<path d="M7060 4216 c0 -8 9 -21 20 -29 20 -14 20 -15 -10 -208 -17 -107 -37
-232 -45 -279 -7 -47 -19 -130 -26 -185 -7 -55 -24 -185 -39 -290 -23 -163
-24 -213 -5 -193 4 4 20 102 30 183 9 69 34 253 41 293 l5 32 82 -1 c45 0 130
-4 189 -8 85 -7 112 -13 134 -30 37 -29 78 -27 103 5 27 35 28 90 2 104 -35
18 -78 12 -98 -15 l-18 -24 -145 9 c-80 5 -166 10 -192 10 -48 0 -48 0 -48 35
0 36 18 63 114 163 42 44 56 52 86 52 36 0 80 23 80 41 0 6 -10 3 -22 -5 -30
-21 -53 -20 -76 4 l-19 21 -16 -23 c-48 -70 -127 -133 -127 -100 0 4 12 90 26
192 24 163 30 188 52 212 l25 27 -35 -5 c-25 -4 -39 -1 -51 11 -15 14 -17 14
-17 1z m478 -663 c3 -26 -1 -32 -27 -41 -61 -22 -98 55 -38 77 35 13 62 -2 65
-36z"/>
<path d="M6287 4177 c-19 -49 39 -75 84 -38 28 23 20 38 -11 21 -26 -14 -58
-5 -62 18 -3 15 -4 15 -11 -1z"/>
<path d="M7248 3973 c-10 -2 -18 -9 -18 -15 0 -6 10 -8 23 -4 12 3 35 -1 50
-9 32 -17 36 -3 5 19 -23 16 -29 17 -60 9z"/>
<path d="M4157 3802 c-24 -26 -21 -33 8 -20 19 8 28 8 40 -2 21 -17 29 -7 15
19 -13 26 -41 27 -63 3z"/>
<path d="M2190 3502 c0 -5 3 -12 8 -16 4 -4 7 -13 7 -18 0 -18 22 -20 28 -4 4
9 -4 21 -19 30 -13 9 -24 13 -24 8z"/>
<path d="M2320 3289 c0 -5 5 -7 10 -4 6 3 10 8 10 11 0 2 -4 4 -10 4 -5 0 -10
-5 -10 -11z"/>
<path d="M4084 3033 c-14 -9 -48 -480 -49 -663 l0 -55 146 -3 146 -3 46 55
c59 68 63 79 72 201 4 55 8 111 10 125 10 88 18 187 16 199 -3 16 -76 127 -88
134 -15 9 -288 18 -299 10z m256 -103 c10 -5 26 -24 37 -42 21 -35 21 -12 -12
-353 -5 -47 -12 -68 -34 -93 -29 -32 -29 -32 -125 -32 l-97 0 5 33 c6 37 12
133 22 337 4 80 9 148 11 153 6 11 171 9 193 -3z"/>
<path d="M6907 2979 c-10 -6 -17 -31 -22 -71 -6 -59 -43 -351 -67 -533 -16
-122 -16 -118 17 -126 30 -9 49 1 50 24 1 7 5 44 10 82 5 39 9 75 9 80 1 14
71 18 96 5 11 -6 40 -51 65 -99 55 -111 65 -121 121 -121 38 0 59 12 37 22 -5
2 -36 57 -70 123 l-61 121 46 54 c26 30 70 82 99 114 29 33 53 63 53 68 0 4
-22 8 -49 8 l-50 0 -77 -87 c-43 -49 -84 -92 -92 -97 -7 -4 -34 -5 -58 -1 -49
7 -50 9 -34 96 10 56 41 280 44 313 1 22 -42 38 -67 25z"/>
<path d="M2720 2955 c-24 -25 -24 -26 -4 -44 29 -29 64 -37 64 -15 0 23 -22
84 -30 84 -4 0 -17 -11 -30 -25z"/>
<path d="M5918 2963 c-20 -5 -24 -28 -8 -38 6 -3 17 1 26 9 8 9 24 16 35 16
10 0 19 5 19 10 0 10 -40 12 -72 3z"/>
<path d="M5455 2938 c-2 -7 -20 -121 -40 -253 -21 -132 -44 -253 -52 -269 -8
-16 -13 -40 -10 -53 2 -14 1 -40 -3 -58 -6 -26 -4 -35 7 -39 22 -9 51 -7 57 2
3 5 15 71 27 148 12 76 24 141 26 143 6 8 278 0 287 -9 7 -7 -17 -223 -30
-272 -5 -15 1 -18 35 -18 23 0 41 3 41 6 0 16 22 156 32 199 6 28 19 61 29 74
l19 24 -43 26 c-23 15 -50 30 -59 34 -10 3 -18 11 -18 17 0 6 -49 10 -134 10
-74 0 -137 3 -139 8 -3 4 5 69 18 144 12 76 19 140 17 143 -11 10 -63 4 -67
-7z"/>
<path d="M5825 2938 c-15 -47 -35 -212 -26 -221 13 -13 111 140 111 176 0 37
-74 76 -85 45z"/>
<path d="M3761 2917 c-9 -12 -6 -15 19 -19 24 -4 30 -1 28 11 -4 21 -32 25
-47 8z"/>
<path d="M3820 2859 c0 -19 4 -21 38 -15 20 3 64 6 98 6 47 0 61 3 61 15 0 12
-18 15 -99 15 -93 0 -98 -1 -98 -21z"/>
<path d="M5965 2820 c-3 -5 -3 -15 0 -20 4 -6 1 -17 -5 -25 -7 -8 -9 -15 -5
-15 4 0 3 -6 -3 -13 -6 -7 -13 -33 -14 -58 -2 -34 0 -43 11 -41 8 2 67 6 131
9 l116 6 27 -32 c30 -37 35 -66 11 -75 -9 -3 -68 -6 -133 -6 l-117 0 -61 -62
c-80 -82 -82 -101 -26 -173 l44 -55 172 2 172 3 7 50 c24 182 38 293 38 310 0
11 -19 44 -43 72 l-42 53 -114 0 c-96 0 -112 2 -102 14 8 10 9 16 1 21 -6 3
-8 11 -5 16 4 5 -6 14 -20 19 -32 12 -32 12 -40 0z m260 -407 c-4 -27 -12 -51
-18 -55 -7 -4 -57 -8 -113 -8 -95 0 -102 1 -125 26 l-24 26 33 29 c32 28 35
29 143 29 l111 0 -7 -47z"/>
<path d="M3773 2812 c-13 -2 -23 -8 -23 -13 0 -12 47 -12 55 0 7 13 -5 18 -32
13z"/>
<path d="M4523 2788 c-5 -7 -10 -26 -11 -43 -1 -16 -9 -96 -18 -177 l-16 -147
33 -55 c19 -31 40 -58 47 -61 8 -3 78 -8 158 -12 118 -5 144 -4 149 8 2 8 9
52 15 99 5 47 18 146 29 220 10 74 16 138 14 143 -6 10 -73 9 -73 -2 0 -11
-19 -155 -25 -191 -3 -14 -7 -52 -10 -85 -9 -99 -5 -95 -98 -95 -104 0 -120 5
-141 40 -15 26 -15 40 -4 147 6 65 12 141 12 168 1 47 -1 50 -25 53 -14 2 -30
-3 -36 -10z"/>
<path d="M2666 2739 c2 -18 9 -36 15 -39 6 -4 11 -13 12 -21 4 -22 30 -83 39
-90 5 -3 13 -25 18 -50 8 -42 8 -40 7 25 -1 38 -7 75 -13 81 -7 7 -18 30 -25
53 -6 23 -16 39 -21 36 -5 -3 -8 2 -6 12 2 11 -4 20 -13 22 -13 2 -16 -4 -13
-29z"/>
<path d="M5000 2752 c0 -23 -42 -308 -56 -374 -8 -43 -13 -82 -10 -87 9 -14
66 -19 76 -6 6 7 15 60 21 119 6 59 16 141 22 184 l12 77 75 0 74 0 8 39 c6
29 5 42 -4 48 -17 10 -218 11 -218 0z"/>
<path d="M6452 2696 c-45 -47 -62 -72 -63 -93 0 -38 -8 -106 -19 -172 -10 -53
-9 -54 33 -111 l42 -57 139 -8 c86 -4 142 -3 148 3 5 5 8 27 6 48 l-3 39 -121
5 c-115 5 -123 6 -143 30 -23 29 -26 65 -10 159 9 53 18 72 43 96 31 30 31 30
153 31 68 0 125 2 127 5 2 2 6 22 8 44 l3 40 -141 3 -140 3 -62 -65z"/>
<path d="M5318 2658 c-7 -19 3 -88 13 -88 19 0 29 38 18 69 -11 32 -24 40 -31
19z"/>
<path d="M2790 2580 c0 -5 9 -10 20 -10 11 0 20 5 20 10 0 6 -9 10 -20 10 -11
0 -20 -4 -20 -10z"/>
<path d="M3821 2455 c-28 -47 -51 -90 -51 -96 0 -6 20 -40 45 -76 26 -36 49
-79 52 -97 8 -41 21 -56 48 -56 31 0 47 23 50 73 4 59 -6 72 -56 72 -37 0 -44
4 -72 43 l-31 43 24 44 c44 80 51 86 115 91 78 7 86 10 79 29 -5 12 -23 15
-79 15 l-73 0 -51 -85z m119 -230 c16 -19 3 -55 -20 -55 -25 0 -33 15 -26 46
7 27 27 31 46 9z"/>
<path d="M2771 2479 c-2 -29 26 -108 47 -134 17 -22 20 -38 18 -90 -2 -52 0
-65 13 -68 13 -4 13 -5 -1 -6 -10 0 -18 -5 -18 -10 0 -4 -12 -6 -26 -3 -19 3
-25 1 -20 -7 4 -6 15 -11 25 -11 24 0 46 -26 31 -35 -14 -9 6 -35 27 -35 19 0
33 -41 20 -61 -12 -19 0 -149 14 -149 5 0 9 -5 9 -11 0 -5 -5 -7 -10 -4 -6 3
-13 -2 -17 -11 -9 -24 -43 -57 -43 -42 0 6 -6 3 -14 -7 -14 -19 -15 -19 -35
-1 -12 11 -28 16 -42 13 -24 -6 -49 1 -49 14 0 5 7 9 15 9 8 0 15 5 15 10 0
13 -43 13 -56 0 -8 -8 -15 -6 -24 5 -10 12 -10 15 1 15 8 1 1 7 -16 14 -22 10
-34 10 -44 2 -11 -8 -13 -8 -7 2 4 7 0 15 -11 19 -10 4 -23 13 -29 22 -6 8
-18 11 -27 8 -9 -3 -19 -2 -22 4 -4 5 1 12 9 15 9 3 13 10 10 15 -3 5 -10 7
-15 3 -6 -3 -20 3 -32 13 -52 46 -129 83 -174 83 -18 0 -23 -6 -23 -24 0 -13
7 -26 15 -30 8 -3 15 -11 15 -19 0 -7 20 -31 43 -53 80 -72 107 -91 173 -124
24 -12 41 -28 40 -36 0 -9 16 -25 38 -37 47 -27 86 -61 86 -75 0 -6 20 -25 45
-42 25 -17 43 -35 40 -40 -3 -5 6 -12 20 -16 14 -3 25 -9 25 -13 0 -15 -32
-51 -46 -51 -8 0 -14 -4 -14 -10 0 -5 -6 -10 -14 -10 -8 0 -16 -7 -20 -15 -7
-19 -26 -20 -26 -1 0 10 -13 12 -52 9 -38 -3 -49 -2 -38 6 11 7 1 11 -38 17
-34 4 -52 11 -52 20 0 8 -12 16 -27 20 -16 3 -42 10 -60 14 -28 7 -32 5 -37
-16 -4 -14 -4 -30 0 -35 3 -6 -3 -13 -15 -16 -25 -6 -27 -18 -5 -27 8 -3 12
-2 9 4 -3 6 -2 10 3 10 5 0 8 -21 7 -46 0 -25 5 -57 12 -71 18 -35 16 -43 -9
-43 -17 -1 -12 -6 22 -22 25 -12 49 -28 53 -35 4 -7 17 -13 27 -13 11 0 20 -4
20 -10 0 -5 12 -10 28 -10 15 0 39 -6 53 -14 14 -7 50 -19 80 -26 30 -7 59
-16 65 -21 6 -5 13 -6 16 -4 3 3 3 -7 0 -22 -2 -15 -1 -25 3 -20 5 4 19 0 32
-9 18 -11 28 -12 37 -5 17 14 29 1 15 -16 -9 -10 -7 -13 10 -13 12 0 32 5 43
11 11 6 18 7 15 2 -3 -5 -1 -15 4 -23 8 -12 12 -12 16 -2 7 17 33 15 33 -3 0
-8 7 -15 15 -15 24 0 17 -20 -10 -30 -37 -14 -96 -6 -112 16 -11 15 -15 16
-22 5 -6 -8 -11 -9 -15 -3 -8 13 -124 72 -142 72 -7 0 -15 6 -17 13 -4 9 -6 9
-6 0 -1 -18 383 -273 411 -273 4 0 8 35 8 77 0 89 36 369 55 428 10 32 10 47
-1 86 -8 26 -14 51 -13 56 1 4 -2 19 -8 33 -30 72 -83 272 -83 313 0 13 -5 28
-10 33 -9 9 -23 56 -85 294 -8 30 -14 75 -15 99 0 29 -9 59 -26 89 -15 25 -24
52 -21 64 6 22 -11 78 -23 78 -4 0 -10 -9 -13 -20 -7 -27 -31 -25 -45 3 -7 15
-11 17 -11 6z m64 -49 c3 -5 1 -10 -4 -10 -6 0 -11 5 -11 10 0 6 2 10 4 10 3
0 8 -4 11 -10z m-390 -931 c-10 -15 -25 -10 -19 6 4 8 10 12 15 9 5 -3 7 -10
4 -15z m395 -19 c8 -5 13 -10 10 -11 -25 -4 -101 -6 -87 -3 9 3 17 10 17 15 0
12 41 11 60 -1z"/>
<path d="M5274 2405 c-3 -14 -10 -25 -14 -25 -5 0 -8 -9 -7 -21 1 -18 7 -15
39 21 21 23 38 44 38 46 0 2 -11 4 -25 4 -18 0 -26 -7 -31 -25z"/>
<path d="M6543 2173 c3 -21 20 -105 38 -188 47 -219 47 -215 2 -247 -21 -15
-76 -55 -122 -89 -197 -144 -210 -152 -262 -145 -63 8 -99 -18 -99 -73 0 -92
104 -94 135 -3 3 9 52 50 108 89 212 151 312 225 315 234 3 8 -71 397 -84 442
-3 9 -12 17 -21 17 -12 0 -14 -8 -10 -37z m-349 -709 c19 -18 20 -28 6 -55
-21 -38 -80 -18 -80 28 0 38 47 55 74 27z"/>
<path d="M4080 2031 c-50 -54 -98 -108 -105 -119 -8 -10 -28 -22 -45 -25 -30
-7 -43 -27 -16 -27 8 0 21 -2 29 -5 9 -4 42 27 92 87 43 51 96 112 118 134 22
23 34 44 29 48 -6 3 -51 -38 -102 -93z"/>
<path d="M9605 1897 c-50 -30 -98 -72 -124 -111 -27 -39 -91 -234 -91 -276 0
-11 -4 -28 -9 -38 -15 -27 -41 -89 -41 -96 0 -3 -17 -32 -39 -64 -21 -31 -41
-66 -44 -77 -3 -11 -20 -58 -38 -105 -17 -47 -40 -112 -51 -145 -11 -33 -24
-69 -29 -80 -17 -36 -58 -159 -54 -163 17 -17 625 372 775 496 l25 21 -70 -19
c-38 -10 -83 -23 -98 -29 -16 -6 -39 -11 -53 -11 -14 0 -37 -11 -52 -25 -15
-14 -35 -25 -44 -25 -10 0 -18 -6 -18 -14 0 -8 -8 -15 -17 -15 -33 0 -153 -33
-153 -42 0 -4 8 -6 18 -3 13 5 14 4 3 -4 -8 -6 -20 -8 -28 -5 -8 3 -13 -2 -14
-13 0 -12 -4 -7 -10 11 -14 48 -1 141 31 208 16 34 41 100 56 147 15 47 40
112 55 144 16 33 29 69 29 82 0 12 7 27 15 34 8 7 15 18 15 25 0 6 9 20 19 29
11 10 25 32 32 49 7 18 20 43 29 57 26 39 31 70 12 69 -10 0 -26 -6 -37 -12z"/>
<path d="M5386 1842 c-3 -5 -12 -64 -21 -133 -9 -68 -18 -133 -21 -144 -12
-56 -91 -830 -110 -1081 -6 -90 -6 -91 23 -125 57 -67 93 -123 93 -146 0 -33
26 -81 47 -87 68 -19 80 -17 102 10 21 26 27 76 15 109 -8 21 -56 45 -91 45
-22 1 -39 14 -81 68 l-54 67 7 170 c11 290 76 1007 111 1223 4 29 -7 44 -20
24z m84 -1641 c0 -24 -23 -43 -43 -35 -22 8 -26 36 -9 56 18 21 52 7 52 -21z"/>
<path d="M5699 1723 l-15 -118 30 -30 c17 -17 46 -42 63 -57 l33 -26 -10 -78
c-6 -42 -11 -78 -12 -79 -22 -19 -110 -65 -124 -65 -11 0 -48 31 -86 72 -76
82 -78 90 -57 233 9 56 16 78 30 86 30 16 22 28 -15 22 -19 -3 -36 -1 -40 6
-16 25 -26 9 -10 -18 16 -26 16 -37 1 -147 -15 -118 -15 -119 7 -151 32 -47
146 -163 160 -163 6 0 46 20 88 46 86 50 83 46 93 184 l7 85 -62 54 -62 54 6
71 c4 39 9 86 13 104 4 24 2 32 -9 32 -11 0 -18 -29 -29 -117z"/>
<path d="M5511 1787 c-40 -20 -38 -37 3 -30 21 3 42 1 50 -6 11 -9 16 -9 22 0
4 7 -2 20 -16 31 -26 21 -28 21 -59 5z"/>
<path d="M3895 1760 c3 -5 13 -10 21 -10 8 0 14 5 14 10 0 6 -9 10 -21 10 -11
0 -17 -4 -14 -10z"/>
<path d="M4820 1663 c0 -5 14 -21 30 -37 17 -16 30 -33 30 -37 0 -3 11 -14 25
-23 20 -13 28 -14 45 -4 28 18 25 25 -9 20 -22 -3 -36 4 -65 34 -20 20 -36 41
-36 46 0 4 -4 8 -10 8 -5 0 -10 -3 -10 -7z"/>
<path d="M3940 1580 c-12 -8 -10 -10 8 -10 13 0 20 4 17 10 -7 12 -6 12 -25 0z"/>
<path d="M4205 1560 c3 -5 8 -10 11 -10 2 0 4 5 4 10 0 6 -5 10 -11 10 -5 0
-7 -4 -4 -10z"/>
<path d="M4001 1499 c10 -19 18 -21 70 -17 39 3 66 10 77 22 16 16 15 16 -13
2 -16 -9 -48 -16 -70 -15 -22 0 -34 3 -27 6 23 9 12 23 -18 23 -28 0 -30 -2
-19 -21z"/>
<path d="M4068 1503 c6 -2 18 -2 25 0 6 3 1 5 -13 5 -14 0 -19 -2 -12 -5z"/>
<path d="M3925 1450 c-4 -6 3 -10 14 -10 25 0 27 6 6 13 -8 4 -17 2 -20 -3z"/>
<path d="M9897 1368 c-8 -27 -3 -34 31 -46 23 -8 33 -6 56 13 32 26 27 45 -11
45 -18 0 -24 -4 -20 -14 5 -12 1 -13 -16 -6 -12 4 -21 13 -19 19 4 21 -16 11
-21 -11z"/>
<path d="M3168 1280 c4 -58 32 -93 32 -41 0 17 -4 31 -10 31 -5 0 -10 11 -10
24 0 14 -3 27 -7 29 -5 3 -6 -17 -5 -43z"/>
<path d="M6975 1200 c-19 -8 -19 -9 3 -9 12 -1 22 4 22 9 0 6 -1 10 -2 9 -2 0
-12 -4 -23 -9z"/>
<path d="M3197 1193 c-3 -4 2 -42 10 -83 21 -108 32 -231 23 -255 -4 -11 -10
-39 -14 -62 l-6 -43 197 -98 c265 -131 483 -223 513 -215 16 4 27 0 39 -14 14
-18 169 -83 198 -83 6 0 30 -8 54 -19 24 -10 64 -18 89 -17 38 1 45 4 48 23 3
18 -3 23 -32 29 -20 3 -36 12 -36 20 0 8 -6 11 -15 8 -8 -4 -15 -12 -15 -20 0
-8 -4 -14 -10 -14 -5 0 -10 6 -10 14 0 8 -4 17 -10 21 -15 9 -60 -6 -60 -21 0
-8 -7 -14 -16 -14 -13 0 -14 3 -4 15 21 25 4 48 -29 40 -25 -5 -32 -2 -47 24
-23 39 -34 39 -34 1 0 -16 -5 -30 -11 -30 -6 0 -9 7 -6 15 5 10 -4 16 -28 21
-19 3 -35 9 -35 13 0 4 -8 8 -17 8 -10 -1 -35 0 -57 1 -33 2 -37 4 -26 17 10
13 15 13 21 3 11 -17 17 -9 21 26 3 26 -1 31 -30 39 -42 13 -69 -7 -31 -22 23
-9 23 -10 -7 -10 -32 -1 -60 21 -50 37 10 16 -22 35 -48 28 -28 -7 -44 10 -27
27 8 8 11 8 11 -1 0 -7 13 -12 30 -12 34 0 34 0 18 35 -10 23 -15 25 -58 19
-34 -4 -55 -2 -76 10 l-29 15 31 1 c26 0 32 4 32 23 0 23 -2 23 -92 19 -68 -4
-94 -9 -103 -21 -11 -14 -13 -14 -19 6 -3 11 -15 23 -26 26 -16 5 -18 9 -9 26
10 17 7 23 -14 37 -14 9 -22 21 -19 26 4 6 10 5 15 -3 5 -8 9 -9 9 -4 0 17
-14 32 -35 39 -22 6 -51 61 -47 87 2 9 -4 19 -13 22 -8 4 -15 13 -15 22 0 8
-3 15 -8 15 -4 0 -7 18 -7 40 0 25 -5 42 -13 45 -8 3 -12 13 -9 25 3 10 -1 24
-9 31 -8 6 -14 19 -14 29 0 20 -26 45 -33 33z m1078 -863 c-3 -5 -18 -9 -33
-9 l-27 1 30 8 c17 4 31 8 33 9 2 0 0 -3 -3 -9z"/>
<path d="M9585 1190 c3 -5 10 -10 16 -10 5 0 9 5 9 10 0 6 -7 10 -16 10 -8 0
-12 -4 -9 -10z"/>
<path d="M6913 1167 c-4 -7 -21 -18 -37 -25 -16 -7 -26 -15 -23 -18 2 -3 22 5
43 16 50 28 63 40 41 40 -9 0 -20 -6 -24 -13z"/>
<path d="M4246 1105 c-32 -27 -52 -32 -58 -13 -3 7 -9 8 -18 3 -10 -6 -6 -11
14 -22 14 -7 26 -19 26 -25 0 -12 80 62 80 75 0 13 -15 7 -44 -18z"/>
<path d="M6803 1103 c-18 -9 -33 -20 -33 -25 0 -13 17 -9 30 7 7 8 19 15 26
15 8 0 14 5 14 10 0 12 3 12 -37 -7z"/>
<path d="M5101 1064 c-1 -6 -18 -23 -38 -36 -21 -14 -50 -37 -64 -52 -27 -27
-32 -55 -54 -306 -3 -36 -10 -94 -15 -130 -5 -36 -12 -101 -15 -145 -6 -67
-11 -83 -31 -102 -14 -13 -22 -23 -18 -23 3 0 2 -6 -4 -13 -13 -16 2 -84 23
-106 18 -18 67 -18 100 -1 21 11 25 21 25 58 0 28 -8 57 -21 78 -20 33 -20 42
-14 276 4 134 8 255 10 271 1 15 3 42 4 61 1 27 13 45 62 93 37 36 59 66 56
74 -3 8 -6 9 -6 3z m-147 -810 c17 -44 -4 -78 -31 -51 -10 10 -13 24 -9 41 7
29 31 35 40 10z"/>
<path d="M5543 1013 c9 -2 23 -2 30 0 6 3 -1 5 -18 5 -16 0 -22 -2 -12 -5z"/>
<path d="M4150 980 c0 -5 9 -10 21 -10 11 0 17 5 14 10 -3 6 -13 10 -21 10 -8
0 -14 -4 -14 -10z"/>
<path d="M6740 905 c-16 -19 -9 -28 18 -23 18 3 19 5 8 21 -12 15 -15 16 -26
2z"/>
<path d="M5527 873 c7 -46 13 -55 13 -20 0 14 5 29 10 32 17 10 11 25 -9 25
-17 0 -19 -5 -14 -37z"/>
<path d="M5528 800 c-13 -44 -8 -64 33 -128 l40 -63 26 16 c15 10 34 14 49 11
13 -4 24 -2 24 4 0 5 -11 12 -25 15 -14 3 -35 7 -48 10 -31 6 -85 82 -89 126
-3 32 -3 32 -10 9z"/>
<path d="M4778 753 c6 -2 18 -2 25 0 6 3 1 5 -13 5 -14 0 -19 -2 -12 -5z"/>
<path d="M4757 635 c6 -10 -2 -39 -25 -85 l-33 -70 -64 0 c-43 0 -66 5 -75 15
-21 25 -66 19 -89 -14 -19 -26 -20 -32 -7 -67 7 -22 21 -41 30 -42 33 -7 65 7
68 31 3 20 10 22 77 27 70 5 76 7 92 35 10 17 18 40 18 52 1 12 6 25 11 28 6
3 10 14 10 24 0 10 9 30 20 43 22 28 18 38 -17 38 -19 0 -22 -3 -16 -15z
m-219 -194 c-4 -36 -35 -40 -44 -6 -4 18 -2 30 6 35 22 14 41 -1 38 -29z"/>
<path d="M3878 583 c6 -2 18 -2 25 0 6 3 1 5 -13 5 -14 0 -19 -2 -12 -5z"/>
<path d="M5600 545 c0 -37 89 -38 103 -1 8 19 -6 21 -32 4 -15 -9 -25 -9 -45
0 -22 10 -26 9 -26 -3z"/>
<path d="M3993 493 c9 -2 23 -2 30 0 6 3 -1 5 -18 5 -16 0 -22 -2 -12 -5z"/>
<path d="M6280 490 c-9 -6 -10 -10 -3 -10 6 0 15 5 18 10 8 12 4 12 -15 0z"/>
<path d="M5870 470 c0 -13 13 -16 76 -17 42 -1 85 2 97 7 21 8 21 8 -5 15 -15
4 -31 5 -35 2 -5 -3 -36 -2 -71 2 -53 6 -62 5 -62 -9z"/>
<path d="M6132 472 c-7 -2 -10 -8 -6 -13 7 -13 121 -11 129 2 10 16 -1 22 -20
11 -9 -5 -34 -6 -54 -2 -20 3 -42 5 -49 2z"/>
<path d="M6095 460 c3 -5 8 -10 11 -10 2 0 4 5 4 10 0 6 -5 10 -11 10 -5 0 -7
-4 -4 -10z"/>
<path d="M5838 341 c-16 -9 -28 -22 -28 -30 0 -11 3 -11 15 -1 9 7 26 9 45 5
35 -8 36 -5 13 22 -17 18 -20 18 -45 4z"/>
<path d="M4380 309 c0 -8 41 -29 56 -29 16 0 -1 18 -26 27 -17 6 -30 7 -30 2z"/>
<path d="M4468 283 c7 -3 16 -2 19 1 4 3 -2 6 -13 5 -11 0 -14 -3 -6 -6z"/>
<path d="M4460 256 c0 -8 7 -17 16 -20 21 -8 26 -3 18 18 -8 20 -34 21 -34 2z"/>
<path d="M4512 238 c5 -15 28 -23 28 -10 0 5 -7 13 -16 16 -10 4 -14 1 -12 -6z"/>
<path d="M5790 221 c0 -20 39 -42 64 -35 35 8 34 34 -1 35 -16 0 -36 2 -45 4
-10 2 -18 0 -18 -4z"/>
<path d="M4815 170 c-3 -5 -1 -10 4 -10 6 0 11 5 11 10 0 6 -2 10 -4 10 -3 0
-8 -4 -11 -10z"/>
<path d="M4958 123 c7 -3 16 -2 19 1 4 3 -2 6 -13 5 -11 0 -14 -3 -6 -6z"/>
</g>
</svg>
