<svg xmlns="http://www.w3.org/2000/svg" viewBox="0 0 282.43 77.11"><defs><style>.cls-1{isolation:isolate;}.cls-2{fill:#07b9e8;}</style></defs><g id="Blue"><g id="Hackathons" class="cls-1"><g class="cls-1"><path class="cls-2" d="M5.6,20.92h6.72l-1.76,10.2H22.12l1.72-10.2h6.72l-4.8,28H19.12l2-11.76H9.52l-2,11.76H.88Z"/><path class="cls-2" d="M31.28,39.72a11.39,11.39,0,0,1,1.8-4.92,10.91,10.91,0,0,1,3.58-3.42,8.88,8.88,0,0,1,4.58-1.26,5.87,5.87,0,0,1,3.54,1,6.47,6.47,0,0,1,2.14,2.68l.56-3.32h6l-3.2,18.4H44.32l.48-2.72a9.56,9.56,0,0,1-2.88,2.28,7.71,7.71,0,0,1-3.56.84A6.58,6.58,0,0,1,34.22,48a7.46,7.46,0,0,1-2.48-3.48A10.46,10.46,0,0,1,31.28,39.72Zm6.24,0A4.71,4.71,0,0,0,38.1,43a3,3,0,0,0,2.7,1.48A4.31,4.31,0,0,0,43,43.8a6,6,0,0,0,1.84-1.72,5.6,5.6,0,0,0,1-2.36,5,5,0,0,0-.6-3.26A2.83,2.83,0,0,0,42.72,35a4.33,4.33,0,0,0-2.36.6,5.78,5.78,0,0,0-1.88,1.74A5.6,5.6,0,0,0,37.52,39.72Z"/><path class="cls-2" d="M61.28,39.72A4,4,0,0,0,62.1,43a4,4,0,0,0,3.06,1.42,6.54,6.54,0,0,0,3.2-.74,9.23,9.23,0,0,0,2.56-1.9l-.8,5.84a10.69,10.69,0,0,1-2.62,1.22,10.92,10.92,0,0,1-3.3.46,10,10,0,0,1-5.06-1.24,7.9,7.9,0,0,1-3.26-3.42,8.43,8.43,0,0,1-.72-4.94,10.43,10.43,0,0,1,2-5,11.28,11.28,0,0,1,4.16-3.38,12.43,12.43,0,0,1,5.48-1.22,10.58,10.58,0,0,1,3.18.44,9.63,9.63,0,0,1,2.46,1.16l-.8,5.92a5.08,5.08,0,0,0-2-2,5.66,5.66,0,0,0-2.76-.7,5.74,5.74,0,0,0-5.64,4.76Z"/><path class="cls-2" d="M88.68,30.52H96l-9.2,7.8,6.56,10.6H86.64l-5.8-9.44-1.6,9.44H73.52l5.28-31.2h5.8l-3.28,19Z"/><path class="cls-2" d="M95.84,39.72a11.39,11.39,0,0,1,1.8-4.92,10.91,10.91,0,0,1,3.58-3.42,8.85,8.85,0,0,1,4.58-1.26,5.87,5.87,0,0,1,3.54,1,6.55,6.55,0,0,1,2.14,2.68l.56-3.32h6l-3.2,18.4h-5.92l.48-2.72a9.56,9.56,0,0,1-2.88,2.28,7.71,7.71,0,0,1-3.56.84A6.58,6.58,0,0,1,98.78,48a7.39,7.39,0,0,1-2.48-3.48A10.33,10.33,0,0,1,95.84,39.72Zm6.24,0a4.66,4.66,0,0,0,.58,3.24,3,3,0,0,0,2.7,1.48,4.31,4.31,0,0,0,2.24-.64,6,6,0,0,0,1.84-1.72,5.73,5.73,0,0,0,1-2.36,5,5,0,0,0-.6-3.26A2.83,2.83,0,0,0,107.28,35a4.31,4.31,0,0,0-2.36.6A5.68,5.68,0,0,0,103,37.34,5.6,5.6,0,0,0,102.08,39.72Z"/><path class="cls-2" d="M120.28,30.52h3.12l1.08-6.4h5.8l-1.12,6.4h3.2l-.88,5h-3.2L126,48.92h-5.72l2.28-13.4H119.4Z"/><path class="cls-2" d="M145.08,37.72a4.88,4.88,0,0,0-.14-2.28,1.72,1.72,0,0,0-1.74-1.08,2.94,2.94,0,0,0-2.38.92,5.51,5.51,0,0,0-1.38,2.24l-2,11.4h-6l5.36-31.2h6l-2.6,15.12a7.17,7.17,0,0,1,2.34-2.14,6.51,6.51,0,0,1,3.34-.82,5.77,5.77,0,0,1,3.46.9A4.32,4.32,0,0,1,151,33.26a9.58,9.58,0,0,1,.12,3.58l-2.08,12.08h-6Z"/><path class="cls-2" d="M154.32,39.72a10.19,10.19,0,0,1,2-5,11.3,11.3,0,0,1,4.14-3.38,12.21,12.21,0,0,1,5.42-1.22,9.91,9.91,0,0,1,5,1.24,7.87,7.87,0,0,1,3.22,3.42,8.59,8.59,0,0,1,.7,4.94,10.33,10.33,0,0,1-2,5,11.41,11.41,0,0,1-4.14,3.4,12.27,12.27,0,0,1-5.42,1.22,9.72,9.72,0,0,1-5-1.26A8.08,8.08,0,0,1,155,44.64,8.36,8.36,0,0,1,154.32,39.72Zm6.12,0a4.56,4.56,0,0,0,.62,3.16,3,3,0,0,0,2.66,1.4A4.54,4.54,0,0,0,167,43a5.41,5.41,0,0,0,1.72-3.26,4.75,4.75,0,0,0-.62-3.2,3,3,0,0,0-2.66-1.44,4.07,4.07,0,0,0-2.28.6,5.72,5.72,0,0,0-2.72,4Z"/><path class="cls-2" d="M190,37.72a5.07,5.07,0,0,0-.14-2.32c-.23-.69-.85-1-1.86-1a3.37,3.37,0,0,0-2.4.9,4,4,0,0,0-1.2,2.38l-2,11.28h-6l3.2-18.4h6l-.4,2.56a6.91,6.91,0,0,1,2.36-2.18,6.71,6.71,0,0,1,3.32-.78q3.32,0,4.56,2a7.22,7.22,0,0,1,.8,5l-2,11.84H188Z"/><path class="cls-2" d="M201,42.28a15.61,15.61,0,0,0,3,2.22,5.2,5.2,0,0,0,2.72.74,2.07,2.07,0,0,0,1.36-.46,1.54,1.54,0,0,0-.28-2.62,15.14,15.14,0,0,0-2.44-1.08,9.71,9.71,0,0,1-2.24-1.16,5.36,5.36,0,0,1-1.66-1.82,4.54,4.54,0,0,1-.5-2.66,5,5,0,0,1,1.18-2.94,6.27,6.27,0,0,1,2.6-1.78,9.43,9.43,0,0,1,3.38-.6,10.43,10.43,0,0,1,4.14.8,16.06,16.06,0,0,1,3.38,2l-2.48,3.88A10.44,10.44,0,0,0,210.88,35a5.14,5.14,0,0,0-2.56-.74,2.24,2.24,0,0,0-1.32.36,1.31,1.31,0,0,0-.6.92,1.09,1.09,0,0,0,.42,1.06,4.41,4.41,0,0,0,1.36.74c.57.21,1.18.45,1.82.72a13.49,13.49,0,0,1,2.4,1.22A5.16,5.16,0,0,1,214.08,41a4.52,4.52,0,0,1,.48,2.64,6.09,6.09,0,0,1-2.24,4.44,7.88,7.88,0,0,1-5.08,1.6,12.38,12.38,0,0,1-5.12-1,17.78,17.78,0,0,1-4-2.46Z"/></g></g><path id="UK" class="cls-2" d="M251.1,1.22c-.18,0-30.31,17.4-30.4,17.55s-.09,34.94,0,35.1,30.22,17.54,30.4,17.54S281.4,54,281.49,53.87s.09-34.95,0-35.1S251.27,1.22,251.1,1.22ZM225.8,21.84h5.72V40.32c0,3.12,1.72,5.24,5,5.24s5-2.12,5-5.24V21.84h5.76v18.8c0,6.6-4.6,10.16-10.76,10.16S225.8,47.24,225.8,40.64Zm27.31,0H259V33.2l10-11.36h6.84L264.23,35l12.16,14.88h-7L259,37.16V49.84h-5.92Z"/><g id="consulting" class="cls-1"><g class="cls-1"><path class="cls-2" d="M128.58,66.61a3,3,0,0,0,.39,1.53,2.62,2.62,0,0,0,1,1,2.88,2.88,0,0,0,1.46.37,3.74,3.74,0,0,0,1.82-.44A2.58,2.58,0,0,0,134.45,68v2.38a3.12,3.12,0,0,1-1.31.77,5.67,5.67,0,0,1-1.8.27,5.28,5.28,0,0,1-2.55-.61A4.55,4.55,0,0,1,127,69.1a5.11,5.11,0,0,1,0-5,4.66,4.66,0,0,1,1.78-1.69,5.4,5.4,0,0,1,2.55-.61,5.66,5.66,0,0,1,1.8.28,3.72,3.72,0,0,1,1.31.74v2.4a2.71,2.71,0,0,0-1.19-1.12,4,4,0,0,0-1.81-.44,2.89,2.89,0,0,0-1.46.38,2.83,2.83,0,0,0-1,1A2.94,2.94,0,0,0,128.58,66.61Z"/><path class="cls-2" d="M136.12,66.61a4.8,4.8,0,0,1,.65-2.5,4.66,4.66,0,0,1,1.78-1.69,5.34,5.34,0,0,1,2.53-.61,5.27,5.27,0,0,1,2.54.61,4.57,4.57,0,0,1,1.77,1.69,5.11,5.11,0,0,1,0,5,4.45,4.45,0,0,1-1.77,1.7,5.16,5.16,0,0,1-2.54.61,5.23,5.23,0,0,1-2.53-.61,4.55,4.55,0,0,1-1.78-1.7A4.76,4.76,0,0,1,136.12,66.61Zm2.22,0a2.88,2.88,0,0,0,.79,2.09,2.76,2.76,0,0,0,3.91,0,3.2,3.2,0,0,0,0-4.19,2.79,2.79,0,0,0-3.91,0A2.91,2.91,0,0,0,138.34,66.61Z"/><path class="cls-2" d="M154,65.61c0-1.37-.56-2.06-1.7-2.06a2.05,2.05,0,0,0-1.49.56,2,2,0,0,0-.57,1.5v5.6h-2.16V62h2.16v1.42a3.3,3.3,0,0,1,5.16-.67,3.87,3.87,0,0,1,.82,2.61v5.84H154Z"/><path class="cls-2" d="M159.4,68.19a6,6,0,0,0,1.35,1.13,2.72,2.72,0,0,0,1.37.39,1.39,1.39,0,0,0,.91-.27.86.86,0,0,0,.33-.71,1.08,1.08,0,0,0-.57-1,8.21,8.21,0,0,0-1.49-.67,11.26,11.26,0,0,1-1.23-.57,3,3,0,0,1-1-.86,2.25,2.25,0,0,1-.39-1.37,2.18,2.18,0,0,1,.44-1.39,2.83,2.83,0,0,1,1.16-.83,4.41,4.41,0,0,1,1.56-.28,4.68,4.68,0,0,1,2.06.46,4.36,4.36,0,0,1,1.5,1.16l-1.2,1.28a3.8,3.8,0,0,0-1.09-.87,2.78,2.78,0,0,0-1.33-.35,1.39,1.39,0,0,0-.76.2.67.67,0,0,0-.3.58.91.91,0,0,0,.57.82,13.69,13.69,0,0,0,1.43.64,12.2,12.2,0,0,1,1.4.65,3.29,3.29,0,0,1,1,.87,2.22,2.22,0,0,1,.39,1.36,2.62,2.62,0,0,1-.89,2.09,3.45,3.45,0,0,1-2.39.79,4.72,4.72,0,0,1-2.47-.62,5.41,5.41,0,0,1-1.65-1.42Z"/><path class="cls-2" d="M169.68,67.61a2.41,2.41,0,0,0,.42,1.52,1.52,1.52,0,0,0,1.28.54,2,2,0,0,0,2.06-2.06V62h2.16v9.2h-2.16V69.79a2.93,2.93,0,0,1-2.78,1.62,3,3,0,0,1-2.37-1,3.85,3.85,0,0,1-.83-2.6V62h2.22Z"/><path class="cls-2" d="M178.36,55.61h2.16v15.6h-2.16Z"/><path class="cls-2" d="M182,62h1.54v-3.2h2.14V62h1.54v1.9h-1.54v7.3h-2.14v-7.3H182Z"/><path class="cls-2" d="M188.62,58.35a1.29,1.29,0,0,1,.4-.94,1.37,1.37,0,0,1,1-.38,1.34,1.34,0,0,1,1,.38,1.28,1.28,0,0,1,.39.94,1.24,1.24,0,0,1-.39.94,1.3,1.3,0,0,1-1,.38,1.33,1.33,0,0,1-1-.38A1.25,1.25,0,0,1,188.62,58.35Zm.3,3.66H191v9.2h-2.12Z"/><path class="cls-2" d="M199.94,65.61c0-1.37-.56-2.06-1.7-2.06a2.05,2.05,0,0,0-1.49.56,2,2,0,0,0-.57,1.5v5.6H194V62h2.16v1.42a3.3,3.3,0,0,1,5.16-.67,3.87,3.87,0,0,1,.82,2.61v5.84h-2.22Z"/><path class="cls-2" d="M204.4,71.83h2.16a2.15,2.15,0,0,0,.73,1.55,2.64,2.64,0,0,0,1.85.63,2.69,2.69,0,0,0,1.3-.32,2.44,2.44,0,0,0,1-1,3.29,3.29,0,0,0,.39-1.7V69.63a3.5,3.5,0,0,1-3.14,1.68,4.47,4.47,0,0,1-2.22-.56,4.25,4.25,0,0,1-1.64-1.62,5,5,0,0,1-.62-2.56,5.08,5.08,0,0,1,.62-2.58,4.39,4.39,0,0,1,1.64-1.62,4.57,4.57,0,0,1,2.22-.56,3.49,3.49,0,0,1,3.14,1.7V62H214v9a5.12,5.12,0,0,1-.67,2.75,4,4,0,0,1-1.75,1.61,5.28,5.28,0,0,1-2.34.52,5,5,0,0,1-3.49-1.13A4,4,0,0,1,204.4,71.83Zm2.06-5.26a2.73,2.73,0,0,0,.82,2.12,2.79,2.79,0,0,0,1.94.74,2.47,2.47,0,0,0,1.22-.32,2.55,2.55,0,0,0,1-1,2.87,2.87,0,0,0,.4-1.58,2.92,2.92,0,0,0-.4-1.58,2.73,2.73,0,0,0-1-1,2.49,2.49,0,0,0-1.22-.33,2.8,2.8,0,0,0-1.94.75A2.76,2.76,0,0,0,206.46,66.57Z"/></g></g></g></svg>