<?xml version="1.0" encoding="UTF-8" standalone="no"?>
<svg
   xmlns:dc="http://purl.org/dc/elements/1.1/"
   xmlns:cc="http://creativecommons.org/ns#"
   xmlns:rdf="http://www.w3.org/1999/02/22-rdf-syntax-ns#"
   xmlns:svg="http://www.w3.org/2000/svg"
   xmlns="http://www.w3.org/2000/svg"
   xmlns:sodipodi="http://sodipodi.sourceforge.net/DTD/sodipodi-0.dtd"
   xmlns:inkscape="http://www.inkscape.org/namespaces/inkscape"
   inkscape:version="1.0 (4035a4f, 2020-05-01)"
   sodipodi:docname="du.svg"
   viewBox="0 0 83.288674 94.304131"
   height="94.304131"
   width="83.288673"
   xml:space="preserve"
   id="svg2"
   version="1.1"><metadata
     id="metadata8"><rdf:RDF><cc:Work
         rdf:about=""><dc:format>image/svg+xml</dc:format><dc:type
           rdf:resource="http://purl.org/dc/dcmitype/StillImage" /><dc:title></dc:title></cc:Work></rdf:RDF></metadata><defs
     id="defs6" /><sodipodi:namedview
     inkscape:current-layer="g10"
     inkscape:window-maximized="0"
     inkscape:window-y="25"
     inkscape:window-x="0"
     inkscape:cy="106.65116"
     inkscape:cx="225.75403"
     inkscape:zoom="2.0861646"
     fit-margin-bottom="0"
     fit-margin-right="0"
     fit-margin-left="0"
     fit-margin-top="0"
     inkscape:pagecheckerboard="true"
     showgrid="false"
     inkscape:document-rotation="0"
     id="namedview4"
     inkscape:window-height="903"
     inkscape:window-width="1680"
     inkscape:pageshadow="2"
     inkscape:pageopacity="0"
     guidetolerance="10"
     gridtolerance="10"
     objecttolerance="10"
     borderopacity="1"
     bordercolor="#666666"
     pagecolor="#ffffff" /><g
     transform="matrix(1.3333333,0,0,-1.3333333,2.187645e-4,132.28333)"
     inkscape:label="ink_ext_XXXXXX"
     inkscape:groupmode="layer"
     id="g10"><g
       transform="scale(0.1)"
       id="g12"><path
         id="path18"
         style="fill:#ffffff;fill-opacity:1;fill-rule:nonzero;stroke:none"
         d="m 622.328,707.383 c 5.77,55.023 0.328,165.578 -10.613,225.406 -2.535,13.852 -11.52,30.981 -35.395,36.555 -61.07,14.222 -141.828,22.121 -227.925,22.781 -7.489,-61.641 -13.809,-147.066 -13.809,-243.57 l 0.098,-36.899 0.015,-2.043 9.16,-0.863 c 4.379,-0.398 6.071,-2.785 6.696,-7.211 0.617,-4.355 1.179,-9.762 1.179,-9.762 0,0 164.067,0.957 270.594,15.606" /><path
         id="path20"
         style="fill:#ffffff;fill-opacity:1;fill-rule:nonzero;stroke:none"
         d="m 291.32,630.039 -9.179,0.863 c -4.391,0.414 -6.227,2.766 -6.696,7.223 -0.453,4.137 -1.179,9.758 -1.179,9.758 l 0.019,0.055 c -73.078,0 -155.461,-0.391 -261.9842,-15.047 C 26.668,550.609 120.703,364.504 272.199,284.844 c 7.496,61.64 19.301,211.898 19.301,308.394 l -0.156,34.817 -0.008,2.043 -0.016,-0.059" /><path
         id="path22"
         style="fill:#ffffff;fill-opacity:1;fill-rule:nonzero;stroke:none"
         d="m 351.688,647.938 c 73.054,0 156.191,-0.391 262.707,-15.047 C 600.027,550.609 505.992,364.504 354.488,284.844 347.012,346.484 334.52,496.742 334.52,593.238 l 0.55,35.446 -0.074,1.421 8.789,0.797 c 4.387,0.414 6.156,2.778 6.695,7.223 0.493,4.035 1.18,9.758 1.18,9.758 l 0.028,0.055" /><path
         id="path24"
         style="fill:#ffffff;fill-opacity:1;fill-rule:nonzero;stroke:none"
         d="m 151.367,814.559 c -0.394,-0.754 -0.137,-2.043 0.274,-2.649 0.64,0.07 2.179,0.512 3.007,1.028 0.954,0.585 1.231,1.046 2.254,1.777 -0.992,0.07 -5.398,0.098 -5.535,-0.156" /><path
         id="path26"
         style="fill:#ffffff;fill-opacity:1;fill-rule:nonzero;stroke:none"
         d="m 185.176,774.441 c 0,-2.57 -3.906,-4.078 -4.696,-5.23 -0.39,-0.582 -0.718,-0.93 -0.878,-1.559 -0.469,1.661 0.414,3.032 0.414,4.219 0,1.348 -0.946,1.988 -2.305,1.988 -2.051,0 -7.555,-4.964 -4.234,-12.921 -0.219,2.828 0.828,4.683 1.3,5.207 0.473,0.527 0.907,1.562 0.809,2.39 1.066,-1.961 1.289,-2.851 1.289,-4.418 0,-3.398 -2.461,-4.101 -1.309,-6.625 0.211,-0.687 0.442,-1.262 0.797,-2.148 0,1.191 0.211,2.234 0.422,3.074 0.203,0.836 1.516,2.395 1.668,3.023 0.156,0.633 0.211,1.258 0.051,2.043 1.098,-1.363 1.828,-2.546 1.828,-4.75 0,-2.554 -1.152,-4.027 -1.469,-4.75 -0.308,-0.742 -0.672,-1.457 -0.824,-2.707 -0.715,-5.64 -3.492,-8.293 -7.152,-8.293 -2.297,0 -4.016,0.364 -5.473,1.305 0,-7.254 -8.254,-6.68 -8.254,-11.422 0,-1.312 0.887,-2.871 1.774,-3.765 0.882,-0.879 4.238,-2.118 5.48,-3.735 -1.805,-0.121 -3.742,-0.746 -4.785,-1.949 2.961,-1.473 2.887,-3.152 3.273,-5.398 -2.914,1.449 -4.242,0.609 -4.996,-0.176 -0.886,-0.938 -0.457,-2.18 -1.48,-3.625 -0.469,1.14 -1.235,2.105 -2.481,2.105 -1.261,0 -3.836,-2.25 -3.875,-2.988 -0.109,-1.981 -1.05,-2.77 -2.836,-2.992 -1.336,-1.426 -1.015,-2.153 -0.968,-3.477 -1.157,1.086 -1.344,1.801 -0.899,3.785 -1.344,0.539 -1.179,1.664 -0.781,2.649 l -0.496,0.351 c -0.731,-0.636 -1.461,-1.55 -3.242,-0.711 -0.688,-0.289 -1.582,-1.343 -1.727,-2.597 -0.461,2.992 0.481,4.023 0.973,4.461 -0.305,0.683 0.129,2.101 1.347,2.629 0,0.296 -0.113,0.449 -0.152,0.589 -1,0 -1.836,0.403 -2.187,1.051 -0.961,0.184 -2.274,-0.965 -2.52,-1.656 0,1.676 1.34,3.375 2.324,3.785 1.121,2.227 3.262,2.625 4.551,1.332 0.719,-0.715 2.43,-1.488 4.172,-1.488 1.726,0 3.316,1.437 3.73,2.012 0.418,0.574 0.465,0.675 0.676,1.152 0.383,0.859 1.106,1.875 -0.676,4.113 -1.406,1.774 -4.918,5.211 -4.988,7.668 -0.105,4.043 1.766,6.399 3.59,8.008 -0.637,0 -0.473,0 -1.445,0 -2.578,0 -2.797,1.609 -5.43,1.609 -1.922,0 -3.066,-1.929 -3.066,-3.601 0,-1.668 0.3,-2.024 0.886,-3.106 0.797,-1.484 1.09,-2.304 0.879,-3.812 -1.515,1.371 -3.683,2.062 -5.414,0.543 -0.668,-1.93 -1.082,-2.688 -2.32,-3.613 -0.11,1.605 -3.41,4.168 -6.36,1.433 -0.289,-0.687 -0.546,-2.223 -2.605,-2.223 -1.227,0 -1.106,0.293 -1.617,0.504 -0.84,-0.726 -1.555,-1.543 -1.797,-2.593 -0.43,1.593 0.137,2.964 0.683,3.636 -0.195,0.692 -0.136,2.411 0.747,2.879 -0.262,0.297 -0.157,0.102 -0.403,0.524 -1.281,-1.09 -3.304,-1.223 -4.183,0.011 -0.746,-0.136 -1.457,-0.66 -2.25,-2.265 -0.192,1.629 0.914,3.476 1.675,4.012 0.02,1.234 1.715,2.312 3.457,1.941 0.133,0.207 -0.031,0.344 0.165,0.601 0.175,0.258 -0.071,0.141 -0.071,0.141 -0.504,0.277 -2.16,0.348 -2.051,2.41 -1.007,0.36 -1.961,-0.113 -2.652,-0.715 0.684,1.766 2.168,2.329 3.301,2.442 0.414,0.773 1.68,0.863 2.328,0.863 1.207,0 2.023,-0.574 2.223,-1.332 1.218,-2.164 3.988,-2.887 6.699,-2.887 1.359,0 2.515,1.036 2.515,2.598 0,1.563 -2.652,6.121 -2.652,8.219 0,2.078 3.738,6.094 6.254,6.094 7.637,0 9.398,-3.196 11.113,-3.196 2.414,0 2.731,0.5 3.102,0.879 -3.598,4.426 -5.891,4.344 -9.32,6.695 -1.731,1.192 -2.618,3.188 -2.883,5.055 -2.117,-0.492 -4.188,-3.332 -5.196,-5.094 -0.472,0.832 -1.195,1.399 -2.085,1.399 -1.7,0 -2.911,-2.215 -3.711,-4.106 -0.489,2.164 -1.786,4.164 -4.262,4.164 -1.387,0 -2.965,-0.593 -3.36,-1.496 -0.394,-0.883 -1.707,-2.226 -3.75,-1.703 -0.734,-0.523 -1.41,-0.734 -1.929,-3.004 -0.696,2.848 0.008,3.375 0.402,4.078 -0.402,1.871 0.375,2.547 0.731,2.996 l -0.2,0.5 c -1.109,-0.367 -2.75,-0.234 -3.23,0.723 -1.246,0.059 -1.609,-0.101 -2.68,-1.707 0.211,1.813 1.242,3.305 2.375,3.742 0.43,1.059 1.899,1.496 3.067,1.496 0.101,0.297 0.191,0.297 0.25,0.543 -0.762,0.426 -1.411,1.383 -1.254,2.524 -0.938,1.082 -1.977,0.402 -2.832,0.09 1.496,1.562 3.273,2.144 4.465,1.453 2.585,0.851 3.476,-0.348 3.718,-1.793 0.297,-1.66 2.883,-1.887 5.559,-1.887 5.855,0 15.156,5.453 14.484,9.781 -1.386,0.34 -1.543,0.293 -2.629,0.293 -3.129,0 -7.039,-3.918 -10.121,-3.968 1.543,1.742 0.59,3.503 1.442,4.8 -1.692,0.043 -3.414,-1.023 -6.649,-0.73 1.09,0.644 1.836,2.926 1.836,3.719 0,0.793 0,2.386 -3.472,2.386 -0.344,-0.097 -1.286,-0.394 -1.985,-0.394 -0.816,0 -3.109,0.203 -3.109,2.027 -1.149,0.246 -1.985,-0.051 -3.207,-0.969 0.238,1.258 2.609,2.832 3.308,2.938 0.485,0.969 1.45,1.394 1.93,1.344 0.098,0.504 0.078,0.043 0.105,0.64 -1.175,0.16 -2.675,0.59 -2.64,2.555 -0.84,0.769 -1.367,0.93 -3.242,0.437 2.32,1.743 3.156,1.485 3.906,1.192 1.711,1.277 3.101,0.582 3.586,0.035 0.199,0.254 0.383,0.293 0.476,0.492 -0.402,1.246 -0.164,2.457 0.372,2.996 -0.04,1.36 -0.665,1.77 -1.915,2.035 2.571,-0.05 3.614,-0.64 4.454,-1.589 1.484,-0.196 2.402,-1.489 2.437,-2.426 0.039,-2.426 -2.535,-4.086 2.426,-6.656 1.539,-0.789 3.715,-1.582 5.906,-2.231 2.192,-0.637 4.895,-1.625 5.992,-1.625 -0.851,1.336 -0.496,2.676 -1.886,4.02 1.582,0.101 3.519,-0.446 4.961,-0.739 -0.305,1.938 0.179,1.942 -1.11,3.133 1.094,-0.148 2.652,-0.172 3.492,-0.262 5.645,-0.601 5.719,2.196 6.821,5.75 -1.926,-0.113 -5.168,-0.585 -8.239,-2.621 0.297,1.051 -0.035,1.891 -0.035,2.793 0,1.68 1.324,2.028 1.981,2.028 0.3,0 1.14,0.132 1.773,0.132 1.242,0 2.965,1.391 2.16,4.145 -0.386,1.316 -1.39,2.137 -2.539,1.797 -0.84,-0.238 -1.035,-0.223 -2.265,-0.68 -0.946,-0.351 -1.247,-1.09 -1.348,-2.082 -0.195,0.449 -0.535,1.723 -0.691,2.035 -0.188,0.375 -0.317,0.598 -0.661,1.45 -0.101,0.273 -0.078,0.273 -0.23,0.621 -0.59,1.379 0.348,2.543 1.543,2.777 0.992,0.195 2.59,0.602 3.574,0.895 1.953,0.585 2.559,1.351 2.973,2.382 0.441,1.086 0.711,1.508 2.511,1.508 0.563,0 2.606,-0.051 3.54,-0.051 2.73,0 5.804,2.223 4.796,4.586 1.903,-0.336 2.664,-3.383 2.196,-4.586 0.883,0 3.851,0.582 4.531,1.153 -0.016,-2.055 -1.621,-4.59 -2.762,-5.223 1.457,-0.148 4.028,0.063 4.805,0.738 -0.477,-1.562 -2.141,-4.898 -3.195,-5.375 2.55,-0.875 4.214,-2.25 5.355,-5.402 -1.934,0.789 -3.07,-0.16 -4.758,0.094 3.477,-4.071 4.758,-10.25 5.77,-11.793 -0.938,0.511 -2.821,1.562 -4.227,2.074 1.446,-3.367 -0.691,-6.699 -0.367,-8.492 -1.094,0.625 -2.512,1.406 -2.973,2.297 -0.57,-1.36 -1.765,-4.024 -1.308,-7.461 -0.879,0.941 -2.395,1.668 -3.074,2.191 -1.301,-1.875 -2.09,-3.082 -2.09,-7.883 0,-6.558 3.058,-12.836 4.39,-15.324 2.032,-3.812 2.536,-7.055 2.864,-8.351 0.648,-2.559 2.476,-4.219 4.906,-4.219 2.348,0 4.324,2.14 4.324,4.746 0,4.746 -5.789,7.766 -5.789,16.113 0,5.481 4.223,8.207 4.34,11.703 0.101,3.094 -2.731,1.172 -4.844,2.551 2.715,0.543 4.309,3.539 6.719,3.406 2.125,-0.125 2.613,-1.254 2.726,-2.336 0.157,-1.492 -0.812,-3.222 -1.125,-3.843 2.36,2.035 3.411,5.144 3.411,6.718 0,2.344 -3.301,4.946 -2.45,9.446 0.125,0.601 0.11,0.515 0.254,0.883 0.977,-5.059 8.153,-6.364 8.153,-11.368 0,-4.718 -4.075,-3.828 -6.414,-7.093 2.562,1.027 5.449,0.519 5.449,-2.286 z m -48.266,34.477 c -0.644,-2.383 -0.621,-5.445 2.711,-5.445 2.586,0 7.098,2.218 8.039,2.652 l 0.387,-0.848 c -0.742,-0.297 -6.637,-5.027 -11.391,-5.089 -2.66,-0.04 -3.562,1.562 -3.562,3.121 0,2.414 1.879,3.273 3.816,5.609 z M 149.84,851.066 1.5625,707.383 C 107.441,692.828 200.074,691.793 272.945,691.77 h 1.34 c 0,0 0.606,4.918 1.168,9.757 0.52,4.45 2.317,6.821 6.703,7.219 l 9.18,0.867 0.008,0.168 -141.504,141.285" /><path
         id="path28"
         style="fill:#ffffff;fill-opacity:1;fill-rule:nonzero;stroke:none"
         d="m 257.492,919.645 c 0,-2.715 -4.144,-4.321 -4.98,-5.547 -0.41,-0.606 -0.762,-0.985 -0.934,-1.641 -0.504,1.758 0.442,3.203 0.442,4.473 0,1.422 -1.008,2.093 -2.454,2.093 -2.168,0 -8.003,-5.257 -4.48,-13.691 -0.242,2.996 0.867,4.973 1.375,5.52 0.504,0.554 0.969,1.66 0.852,2.535 1.152,-2.082 1.367,-3.016 1.367,-4.684 0,-3.613 -2.606,-4.355 -1.379,-7.031 0.23,-0.734 0.461,-1.332 0.84,-2.277 0,1.265 0.23,2.375 0.445,3.257 0.219,0.883 1.605,2.543 1.777,3.215 0.157,0.668 0.215,1.336 0.047,2.16 1.168,-1.445 1.942,-2.695 1.942,-5.031 0,-2.711 -1.219,-4.269 -1.555,-5.039 -0.328,-0.777 -0.719,-1.551 -0.883,-2.871 -0.75,-5.988 -3.695,-8.789 -7.578,-8.789 -2.438,0 -4.258,0.375 -5.813,1.371 0,-7.688 -8.742,-7.082 -8.742,-12.109 0,-1.387 0.942,-3.043 1.883,-3.993 0.934,-0.933 4.484,-2.25 5.805,-3.957 -1.906,-0.136 -3.969,-0.796 -5.078,-2.078 3.148,-1.554 3.074,-3.328 3.472,-5.715 -3.09,1.543 -4.508,0.645 -5.289,-0.179 -0.945,-1.008 -0.488,-2.317 -1.57,-3.86 -0.5,1.215 -1.313,2.243 -2.637,2.243 -1.332,0 -4.074,-2.399 -4.105,-3.176 -0.114,-2.098 -1.114,-2.93 -3.008,-3.172 -1.422,-1.516 -1.086,-2.281 -1.027,-3.695 -1.227,1.164 -1.426,1.918 -0.957,4.019 -1.422,0.582 -1.247,1.774 -0.825,2.82 l -0.535,0.372 c -0.758,-0.684 -1.547,-1.641 -3.433,-0.762 -0.723,-0.305 -1.68,-1.422 -1.825,-2.754 -0.492,3.172 0.5,4.269 1.032,4.738 -0.321,0.715 0.132,2.219 1.418,2.785 0,0.313 -0.11,0.473 -0.157,0.625 -1.054,0 -1.941,0.43 -2.32,1.098 -1.012,0.211 -2.406,-1.012 -2.672,-1.742 0,1.773 1.414,3.586 2.465,4.008 1.187,2.363 3.457,2.793 4.836,1.418 0.75,-0.747 2.566,-1.579 4.414,-1.579 1.836,0 3.512,1.52 3.961,2.129 0.441,0.618 0.496,0.719 0.711,1.231 0.402,0.91 1.172,1.976 -0.711,4.371 -1.496,1.867 -5.223,5.523 -5.285,8.117 -0.117,4.289 1.871,6.785 3.804,8.488 -0.679,0 -0.5,0 -1.531,0 -2.738,0 -2.976,1.719 -5.758,1.719 -2.046,0 -3.257,-2.051 -3.257,-3.828 0,-1.766 0.316,-2.145 0.941,-3.289 0.852,-1.578 1.156,-2.441 0.922,-4.039 -1.606,1.453 -3.906,2.187 -5.727,0.574 -0.707,-2.058 -1.152,-2.844 -2.465,-3.844 -0.109,1.715 -3.589,4.426 -6.722,1.536 -0.313,-0.727 -0.582,-2.364 -2.77,-2.364 -1.293,0 -1.164,0.313 -1.715,0.543 -0.894,-0.781 -1.64,-1.64 -1.906,-2.754 -0.457,1.684 0.145,3.145 0.735,3.852 -0.215,0.738 -0.153,2.558 0.793,3.062 -0.282,0.301 -0.184,0.102 -0.43,0.539 -1.356,-1.156 -3.508,-1.293 -4.434,0.016 -0.801,-0.144 -1.554,-0.691 -2.39,-2.394 -0.204,1.722 0.968,3.691 1.777,4.25 0.016,1.304 1.816,2.453 3.656,2.05 0.145,0.227 -0.023,0.375 0.184,0.653 0.191,0.261 -0.071,0.144 -0.071,0.144 -0.539,0.289 -2.296,0.363 -2.175,2.559 -1.071,0.383 -2.082,-0.125 -2.817,-0.762 0.723,1.875 2.293,2.481 3.504,2.59 0.426,0.824 1.778,0.91 2.461,0.91 1.285,0 2.149,-0.609 2.36,-1.41 1.296,-2.301 4.226,-3.063 7.113,-3.063 1.437,0 2.656,1.102 2.656,2.75 0,1.668 -2.832,6.5 -2.832,8.723 0,2.215 3.977,6.457 6.633,6.457 8.097,0 9.965,-3.383 11.785,-3.383 2.555,0 2.902,0.528 3.297,0.938 -3.82,4.699 -6.25,4.594 -9.899,7.101 -1.832,1.258 -2.769,3.368 -3.043,5.356 -2.257,-0.528 -4.453,-3.531 -5.511,-5.406 -0.504,0.882 -1.278,1.488 -2.215,1.488 -1.805,0 -3.086,-2.352 -3.938,-4.348 -0.515,2.289 -1.882,4.414 -4.519,4.414 -1.481,0 -3.145,-0.633 -3.563,-1.594 -0.422,-0.933 -1.808,-2.363 -3.968,-1.804 -0.789,-0.559 -1.504,-0.778 -2.051,-3.18 -0.742,3.008 0.004,3.578 0.426,4.317 -0.426,1.976 0.394,2.699 0.765,3.179 l -0.211,0.531 c -1.172,-0.386 -2.914,-0.253 -3.422,0.762 -1.32,0.063 -1.703,-0.109 -2.839,-1.801 0.226,1.918 1.312,3.496 2.523,3.954 0.453,1.136 2.012,1.593 3.25,1.593 0.105,0.317 0.207,0.317 0.262,0.586 -0.809,0.438 -1.496,1.457 -1.328,2.668 -0.996,1.153 -2.09,0.43 -3.004,0.098 1.597,1.652 3.472,2.265 4.742,1.539 2.726,0.898 3.68,-0.371 3.937,-1.895 0.313,-1.761 3.059,-2 5.891,-2 6.215,0 16.078,5.782 15.359,10.36 -1.468,0.367 -1.629,0.316 -2.781,0.316 -3.32,0 -7.465,-4.16 -10.738,-4.211 1.64,1.848 0.629,3.719 1.527,5.086 -1.793,0.043 -3.617,-1.078 -7.043,-0.769 1.156,0.683 1.942,3.097 1.942,3.937 0,0.852 0,2.535 -3.68,2.535 -0.363,-0.097 -1.359,-0.426 -2.102,-0.426 -0.875,0 -3.316,0.231 -3.316,2.157 -1.199,0.265 -2.094,-0.051 -3.391,-1.028 0.262,1.329 2.774,3.012 3.52,3.125 0.508,1.036 1.531,1.481 2.031,1.422 0.113,0.532 0.094,0.047 0.121,0.684 -1.25,0.164 -2.84,0.621 -2.808,2.703 -0.887,0.816 -1.442,0.996 -3.43,0.469 2.465,1.843 3.348,1.562 4.148,1.265 1.805,1.352 3.286,0.61 3.793,0.024 0.215,0.273 0.411,0.32 0.504,0.535 -0.418,1.312 -0.172,2.605 0.403,3.176 -0.051,1.426 -0.704,1.875 -2.039,2.156 2.73,-0.051 3.828,-0.684 4.722,-1.688 1.574,-0.207 2.559,-1.585 2.586,-2.57 0.047,-2.586 -2.68,-4.344 2.57,-7.058 1.637,-0.832 3.957,-1.672 6.27,-2.364 2.32,-0.683 5.195,-1.726 6.359,-1.726 -0.906,1.414 -0.539,2.836 -2.011,4.261 1.683,0.11 3.734,-0.472 5.261,-0.789 -0.316,2.059 0.196,2.063 -1.172,3.329 1.157,-0.161 2.809,-0.18 3.704,-0.278 5.984,-0.64 6.066,2.324 7.234,6.098 -2.047,-0.113 -5.477,-0.625 -8.738,-2.797 0.316,1.129 -0.035,2.027 -0.035,2.973 0,1.793 1.406,2.148 2.101,2.148 0.32,0 1.203,0.141 1.875,0.141 1.32,0 3.152,1.484 2.293,4.406 -0.406,1.391 -1.469,2.262 -2.691,1.898 -0.895,-0.254 -1.098,-0.234 -2.407,-0.718 -1.007,-0.364 -1.32,-1.145 -1.421,-2.207 -0.204,0.48 -0.567,1.824 -0.743,2.16 -0.195,0.398 -0.328,0.64 -0.687,1.539 -0.117,0.281 -0.09,0.285 -0.25,0.648 -0.629,1.473 0.367,2.699 1.633,2.949 1.047,0.215 2.738,0.641 3.781,0.954 2.09,0.617 2.723,1.429 3.16,2.523 0.469,1.148 0.746,1.602 2.656,1.602 0.602,0 2.774,-0.051 3.758,-0.051 2.906,0 6.168,2.359 5.09,4.871 2.027,-0.367 2.832,-3.602 2.336,-4.871 0.93,0 4.09,0.613 4.797,1.219 -0.008,-2.18 -1.707,-4.864 -2.922,-5.54 1.547,-0.156 4.269,0.071 5.086,0.778 -0.504,-1.656 -2.27,-5.188 -3.379,-5.695 2.699,-0.926 4.473,-2.383 5.68,-5.731 -2.051,0.84 -3.258,-0.172 -5.051,0.102 3.687,-4.313 5.058,-10.875 6.121,-12.504 -1.004,0.535 -2.996,1.644 -4.481,2.195 1.524,-3.574 -0.738,-7.102 -0.394,-9.012 -1.156,0.68 -2.66,1.504 -3.141,2.446 -0.621,-1.45 -1.886,-4.266 -1.386,-7.914 -0.942,1 -2.551,1.773 -3.266,2.328 -1.383,-1.993 -2.219,-3.278 -2.219,-8.364 0,-6.957 3.239,-13.609 4.653,-16.246 2.156,-4.05 2.695,-7.488 3.035,-8.863 0.683,-2.715 2.636,-4.48 5.207,-4.48 2.484,0 4.582,2.269 4.582,5.039 0,5.039 -6.133,8.23 -6.133,17.086 0,5.808 4.473,8.71 4.598,12.414 0.117,3.277 -2.895,1.242 -5.129,2.707 2.867,0.57 4.562,3.75 7.121,3.609 2.254,-0.133 2.765,-1.324 2.89,-2.477 0.165,-1.578 -0.867,-3.418 -1.199,-4.078 2.5,2.16 3.614,5.465 3.614,7.129 0,2.492 -3.497,5.246 -2.586,10.012 0.121,0.648 0.113,0.551 0.273,0.937 1.031,-5.363 8.633,-6.746 8.633,-12.05 0,-5.012 -4.313,-4.055 -6.781,-7.528 2.703,1.102 5.765,0.559 5.765,-2.425 z m -51.187,36.566 c -0.688,-2.531 -0.653,-5.773 2.871,-5.773 2.738,0 7.527,2.347 8.531,2.816 l 0.41,-0.899 c -0.797,-0.324 -7.043,-5.332 -12.086,-5.402 -2.816,-0.043 -3.777,1.66 -3.777,3.313 0,2.558 1.996,3.472 4.051,5.945 z M 117.063,911.59 c 0,-2.613 -3.977,-4.141 -4.782,-5.32 -0.398,-0.586 -0.73,-0.946 -0.898,-1.582 -0.477,1.687 0.422,3.078 0.422,4.289 0,1.375 -0.965,2.019 -2.344,2.019 -2.086,0 -7.684,-5.043 -4.309,-13.144 -0.222,2.878 0.836,4.765 1.325,5.3 0.476,0.536 0.921,1.59 0.812,2.434 1.102,-2 1.32,-2.898 1.32,-4.496 0,-3.461 -2.496,-4.18 -1.328,-6.742 0.219,-0.703 0.442,-1.282 0.813,-2.184 0,1.211 0.215,2.27 0.429,3.125 0.204,0.844 1.532,2.426 1.692,3.082 0.164,0.645 0.211,1.277 0.055,2.07 1.113,-1.378 1.855,-2.589 1.855,-4.828 0,-2.597 -1.168,-4.093 -1.492,-4.836 -0.305,-0.75 -0.684,-1.488 -0.836,-2.754 -0.727,-5.738 -3.555,-8.437 -7.27,-8.437 -2.339,0 -4.0895,0.367 -5.5856,1.324 0,-7.379 -8.3906,-6.793 -8.3906,-11.629 0,-1.328 0.9101,-2.914 1.8086,-3.816 0.8906,-0.899 4.3047,-2.156 5.5703,-3.797 -1.832,-0.133 -3.8125,-0.77 -4.8633,-1.992 3.0156,-1.5 2.9375,-3.203 3.3242,-5.496 -2.9648,1.48 -4.3203,0.621 -5.0781,-0.176 -0.9062,-0.961 -0.4727,-2.223 -1.5039,-3.695 -0.4844,1.171 -1.2578,2.152 -2.5273,2.152 -1.2891,0 -3.9063,-2.309 -3.9454,-3.047 -0.1093,-2.012 -1.0625,-2.812 -2.8867,-3.043 -1.3594,-1.453 -1.0351,-2.191 -0.9804,-3.543 -1.1719,1.11 -1.3672,1.836 -0.918,3.86 -1.3672,0.546 -1.2031,1.691 -0.793,2.695 l -0.5117,0.359 c -0.7266,-0.66 -1.4844,-1.578 -3.2969,-0.726 -0.6992,-0.305 -1.6015,-1.364 -1.7539,-2.645 -0.4765,3.043 0.4883,4.098 0.9922,4.539 -0.3125,0.699 0.1328,2.133 1.3633,2.676 0,0.297 -0.1094,0.449 -0.1524,0.602 -1.0117,0 -1.8632,0.41 -2.2226,1.05 -0.9805,0.207 -2.3164,-0.965 -2.5664,-1.672 0,1.707 1.3633,3.438 2.3711,3.852 1.1328,2.266 3.3125,2.672 4.6289,1.359 0.7304,-0.73 2.4726,-1.515 4.2383,-1.515 1.7578,0 3.375,1.465 3.8007,2.047 0.418,0.586 0.4844,0.691 0.6836,1.175 0.3946,0.864 1.1328,1.895 -0.6836,4.184 -1.4296,1.809 -5.0039,5.305 -5.0742,7.801 -0.1054,4.121 1.8008,6.508 3.6524,8.152 -0.6524,0 -0.4727,0 -1.4688,0 -2.6211,0 -2.8555,1.637 -5.5273,1.637 -1.9571,0 -3.1211,-1.957 -3.1211,-3.664 0,-1.703 0.3086,-2.059 0.9023,-3.156 0.8203,-1.52 1.1094,-2.352 0.8906,-3.883 -1.5429,1.394 -3.7421,2.101 -5.5,0.55 -0.6757,-1.976 -1.1015,-2.734 -2.3632,-3.675 -0.1055,1.629 -3.461,4.238 -6.4649,1.453 -0.3008,-0.692 -0.5586,-2.262 -2.6601,-2.262 -1.2383,0 -1.1172,0.305 -1.6446,0.516 -0.8554,-0.742 -1.5742,-1.574 -1.8281,-2.633 -0.4375,1.609 0.1328,3.023 0.7031,3.699 -0.1992,0.695 -0.1445,2.445 0.7618,2.926 -0.2774,0.293 -0.1641,0.105 -0.4141,0.527 -1.3047,-1.113 -3.3594,-1.234 -4.2617,0.02 -0.7539,-0.145 -1.4805,-0.684 -2.2852,-2.305 -0.1914,1.652 0.9375,3.531 1.7031,4.078 0.0157,1.27 1.7422,2.348 3.5196,1.969 0.1289,0.211 -0.0235,0.359 0.1679,0.617 0.1836,0.266 -0.0703,0.145 -0.0703,0.145 -0.5117,0.281 -2.1992,0.351 -2.0898,2.449 -1.0235,0.371 -1.9961,-0.117 -2.7031,-0.723 0.6992,1.805 2.2109,2.375 3.3593,2.489 0.4258,0.781 1.7188,0.867 2.3711,0.867 1.2305,0 2.0625,-0.582 2.2657,-1.352 1.246,-2.207 4.0546,-2.941 6.8164,-2.941 1.3945,0 2.5546,1.066 2.5546,2.652 0,1.598 -2.6992,6.231 -2.6992,8.363 0,2.118 3.8086,6.192 6.3672,6.192 7.7695,0 9.5586,-3.246 11.3086,-3.246 2.4453,0 2.7734,0.511 3.1641,0.894 -3.6719,4.508 -6.0117,4.414 -9.5078,6.821 -1.7539,1.21 -2.6524,3.238 -2.918,5.14 -2.1758,-0.508 -4.2695,-3.398 -5.2891,-5.195 -0.4843,0.851 -1.2226,1.433 -2.1211,1.433 -1.7265,0 -2.9687,-2.257 -3.7812,-4.179 -0.5,2.199 -1.8086,4.242 -4.336,4.242 -1.4179,0 -3.0195,-0.609 -3.4179,-1.523 -0.4024,-0.899 -1.7383,-2.27 -3.8086,-1.739 -0.7578,-0.531 -1.4414,-0.742 -1.9688,-3.058 -0.7031,2.898 0.0078,3.433 0.4102,4.152 -0.4102,1.902 0.3867,2.594 0.7383,3.043 l -0.1953,0.516 c -1.1329,-0.36 -2.8008,-0.243 -3.2969,0.734 -1.2656,0.051 -1.6328,-0.106 -2.7188,-1.734 0.2149,1.843 1.2578,3.359 2.4141,3.804 0.4375,1.082 1.9336,1.524 3.1211,1.524 0.1016,0.3 0.1914,0.304 0.25,0.558 -0.7734,0.426 -1.4258,1.399 -1.2734,2.559 -0.9532,1.109 -2.004,0.418 -2.879,0.098 1.5313,1.582 3.3204,2.179 4.543,1.472 2.625,0.871 3.5391,-0.351 3.7852,-1.824 0.2968,-1.684 2.9297,-1.918 5.6523,-1.918 5.961,0 15.4258,5.551 14.7383,9.941 -1.4141,0.364 -1.5625,0.309 -2.6719,0.309 -3.1836,0 -7.164,-3.984 -10.2929,-4.035 1.5625,1.769 0.6015,3.566 1.4609,4.879 -1.7188,0.051 -3.4766,-1.035 -6.7656,-0.742 1.1093,0.656 1.8711,2.98 1.8711,3.785 0,0.808 0,2.437 -3.5391,2.437 -0.3516,-0.105 -1.3047,-0.41 -2.0156,-0.41 -0.8321,0 -3.1758,0.207 -3.1758,2.059 -1.1602,0.257 -2.0078,-0.047 -3.2656,-0.981 0.2539,1.274 2.664,2.887 3.3828,3.004 0.4883,0.981 1.4687,1.414 1.9531,1.356 0.1016,0.503 0.082,0.043 0.1172,0.648 -1.207,0.172 -2.7305,0.602 -2.6914,2.594 -0.8516,0.793 -1.3906,0.957 -3.3008,0.453 2.3633,1.769 3.2109,1.504 3.9805,1.223 1.7343,1.289 3.1484,0.585 3.6445,0.023 0.2031,0.258 0.3906,0.297 0.4805,0.504 -0.3985,1.266 -0.1641,2.5 0.3828,3.055 -0.0391,1.367 -0.6797,1.789 -1.9492,2.062 2.6172,-0.043 3.6836,-0.648 4.5312,-1.617 1.5039,-0.195 2.4531,-1.512 2.4766,-2.465 0.0469,-2.477 -2.5742,-4.164 2.4648,-6.773 1.5742,-0.801 3.7891,-1.618 6.0156,-2.266 2.2305,-0.652 4.9805,-1.66 6.0977,-1.66 -0.8633,1.363 -0.5,2.719 -1.9336,4.086 1.6289,0.109 3.5899,-0.449 5.0586,-0.746 -0.3047,1.972 0.1875,1.976 -1.125,3.187 1.1055,-0.156 2.6953,-0.176 3.5586,-0.265 5.7422,-0.618 5.8203,2.23 6.9336,5.847 -1.957,-0.105 -5.2539,-0.594 -8.3789,-2.679 0.3008,1.078 -0.0391,1.933 -0.0391,2.851 0,1.715 1.3516,2.059 2.0156,2.059 0.3125,0 1.1563,0.144 1.8165,0.144 1.25,0 3.0078,1.426 2.1875,4.219 -0.3946,1.336 -1.4102,2.176 -2.5821,1.824 -0.8594,-0.25 -1.0547,-0.222 -2.3164,-0.687 -0.957,-0.352 -1.2578,-1.106 -1.3594,-2.125 -0.1914,0.465 -0.5468,1.754 -0.7109,2.07 -0.1836,0.387 -0.3164,0.625 -0.6641,1.48 -0.1054,0.27 -0.0781,0.274 -0.2382,0.629 -0.6016,1.407 0.3515,2.594 1.5664,2.825 1.0117,0.207 2.6328,0.617 3.6328,0.91 2.0039,0.605 2.6094,1.375 3.039,2.429 0.4454,1.102 0.711,1.536 2.543,1.536 0.582,0 2.6563,-0.051 3.6094,-0.051 2.7812,0 5.914,2.265 4.8828,4.668 1.9414,-0.348 2.7109,-3.446 2.2305,-4.668 0.9023,0 3.9218,0.586 4.6093,1.164 -0.0156,-2.09 -1.6406,-4.668 -2.8007,-5.305 1.4765,-0.156 4.0898,0.063 4.8823,0.742 -0.48,-1.582 -2.1792,-4.98 -3.2495,-5.468 2.5895,-0.891 4.2895,-2.282 5.4495,-5.5 -1.965,0.812 -3.1292,-0.161 -4.8441,0.101 3.5431,-4.14 4.8521,-10.437 5.8631,-11.996 -0.949,0.512 -2.863,1.582 -4.2927,2.106 1.4687,-3.434 -0.6993,-6.809 -0.3829,-8.637 -1.1015,0.637 -2.539,1.433 -3.0117,2.336 -0.5859,-1.391 -1.8008,-4.094 -1.3281,-7.598 -0.9023,0.957 -2.4453,1.699 -3.1289,2.238 -1.3281,-1.91 -2.1289,-3.136 -2.1289,-8.023 0,-6.676 3.1094,-13.063 4.4609,-15.586 2.0742,-3.891 2.5899,-7.187 2.9219,-8.508 0.6484,-2.601 2.5195,-4.289 4.9844,-4.289 2.391,0 4.406,2.172 4.406,4.828 0,4.828 -5.894,7.895 -5.894,16.391 0,5.582 4.289,8.359 4.414,11.914 0.109,3.141 -2.774,1.191 -4.922,2.598 2.754,0.543 4.379,3.593 6.828,3.464 2.176,-0.128 2.668,-1.269 2.773,-2.39 0.168,-1.508 -0.824,-3.266 -1.14,-3.895 2.398,2.067 3.465,5.235 3.465,6.825 0,2.394 -3.356,5.039 -2.493,9.617 0.125,0.617 0.118,0.527 0.274,0.89 0.992,-5.136 8.285,-6.465 8.285,-11.554 0,-4.805 -4.144,-3.895 -6.508,-7.227 2.59,1.059 5.532,0.531 5.532,-2.324 z m -49.1177,35.082 c -0.6523,-2.426 -0.625,-5.539 2.7578,-5.539 2.6328,0 7.2266,2.254 8.1797,2.703 l 0.3945,-0.867 c -0.7539,-0.301 -6.75,-5.117 -11.5859,-5.18 -2.7109,-0.039 -3.6367,1.594 -3.6367,3.184 0,2.457 1.9219,3.324 3.8906,5.699 z M 277.707,992.125 C 191.305,991.395 110.199,982.961 49.7734,969.344 25.8594,963.945 16.9648,946.633 14.3828,932.789 7.05078,893.582 -2.42969,816.055 0.566406,736.344 15.2695,750.332 150.734,882.074 150.734,882.074 L 291.5,741.535 c 0,96.496 -6.312,188.949 -13.793,250.59" /><path
         id="path30"
         style="fill:#ffffff;fill-opacity:1;fill-rule:nonzero;stroke:none"
         d="m 82.6523,952.402 c -0.4062,-0.761 -0.1367,-2.062 0.2735,-2.679 0.6562,0.07 2.2226,0.511 3.0625,1.039 0.9805,0.605 1.2539,1.066 2.3008,1.808 -1.0078,0.075 -5.4883,0.102 -5.6368,-0.168" /><path
         id="path32"
         style="fill:#ffffff;fill-opacity:1;fill-rule:nonzero;stroke:none"
         d="m 221.633,962.184 c -0.422,-0.789 -0.141,-2.157 0.289,-2.793 0.683,0.062 2.308,0.531 3.191,1.086 1.016,0.617 1.297,1.105 2.395,1.875 -1.051,0.082 -5.723,0.105 -5.875,-0.168" /></g></g></svg>
