<svg height="24" viewBox="0 0 94 24" width="94" xmlns="http://www.w3.org/2000/svg"><path d="m17.9442715 1.01667791c3.8484418.01992959 5.6582382.49404385 7.179349 1.87862533 1.3499989 1.22829161 2.4155113 4.00374812 2.4606513 4.12122776l.0062986.01888066 5.5543114 15.37095234h-7.0061377c-1.2082805 0-1.6334357-1.1265459-1.6334357-1.1265459l-2.0680389-5.677833h-10.5942375l.4723947-1.4181471s.2005053-.9440328 1.2450223-.9440328h9.5581186c.9311424 0 1.2313754.7069757 1.2313754.7069757l2.3157836 6.3501942h3.2070348l-4.5013962-12.44969521c-.3621692-.95032638-1.1946336-2.61916663-1.8391898-3.20656484-.7726277-.70277999-1.6754264-1.24192763-5.5942025-1.26290614h-1.6943222c-3.5765524.01888066-4.6914038.44054866-5.5952523 1.26290614-.6466558.58949606-1.4801699 2.26462987-1.84233913 3.21600517l-5.01998056 13.80805348s-.21835131.7552263-1.20198196.7552263h-1.58409675l5.59210297-15.39193082c.04513994-.11747964 1.11065233-2.90027863 2.46485035-4.13276594 1.52111078-1.38458148 3.33300678-1.85869574 7.18144858-1.87862533zm58.1251182 0c3.8484418.01992959 5.6571885.49404385 7.179349 1.87862533 1.349999 1.22829161 2.4144616 4.00374812 2.4606513 4.12122776l.0062986.01888066 5.5543114 15.37095234h-7.0071874c-1.2072308 0-1.632386-1.1265459-1.632386-1.1265459l-2.0680388-5.677833h-10.5942375l.4723946-1.4181471s.2005053-.9440328 1.2450224-.9440328h9.5581185c.8147496 0 1.1464592.5412783 1.2166562.6765978l.0147193.0303779 2.2842906 6.3187264h3.2070348l-4.4699032-12.41822741c-.363219-.95032638-1.1946336-2.61916663-1.8391899-3.20656484-.7726277-.70277999-1.6754264-1.24192763-5.5942025-1.26290614h-1.6943222c-3.5776022.01888066-4.6914038.44054866-5.5952522 1.26290614-.6466558.58949606-1.48017 2.26462987-1.8423392 3.21600517l-5.0199806 13.80805348s-.219401.7552263-1.2019819.7552263h-1.5851465l5.5931527-15.39193082c.0451399-.11747964 1.1106523-2.90027863 2.4648504-4.13276594 1.5211107-1.38458148 3.3330067-1.85869574 7.1814485-1.87862533zm-44.372765-.01667791c1.1536928 0 1.4759709 1.13598617 1.4759709 1.13598617l4.8268236 13.42624473c.3621693.9503263 1.1946336 2.6191666 1.8391899 3.2065648.7862746.7153671 1.6953719 1.2629061 5.5543114 1.2629061h1.9200218c3.7224699 0 4.6231691-.547539 5.4094437-1.2629061.6445563-.5873982 1.4791202-2.262532 1.8423392-3.2170541l4.403768-12.1864149h-3.1450987l-3.3424546 8.8864957s-.2456453 1.0132619-1.6397344 1.0132619h-1.2765153l4.1770185-11.13644061s.345373-1.12549691 1.4570751-1.12549691h7.1352589l-5.5553612 15.37934372c-.04514.1174796-1.1148514 2.9023765-2.4648504 4.131717-1.5347577 1.3971686-3.3120114 1.8796743-6.9851423 1.8796743h-1.9389176c-3.7959535 0-5.6015509-.4762122-7.1426072-1.8786254-1.349999-1.2293405-2.4165611-4.004797-2.4606513-4.1222767l-.0073484-.0188806-5.5616597-15.3740991z" fill="#6e56ff" fill-rule="evenodd"/></svg>