<?xml version="1.0" encoding="UTF-8" standalone="no"?>
<!-- Created with Inkscape (http://www.inkscape.org/) -->

<svg
   xmlns:dc="http://purl.org/dc/elements/1.1/"
   xmlns:cc="http://creativecommons.org/ns#"
   xmlns:rdf="http://www.w3.org/1999/02/22-rdf-syntax-ns#"
   xmlns:svg="http://www.w3.org/2000/svg"
   xmlns="http://www.w3.org/2000/svg"
   xmlns:sodipodi="http://sodipodi.sourceforge.net/DTD/sodipodi-0.dtd"
   xmlns:inkscape="http://www.inkscape.org/namespaces/inkscape"
   width="401.64514"
   height="509.13602"
   id="svg16335"
   version="1.1"
   inkscape:version="0.48.4 r9939"
   sodipodi:docname="New document 2">
  <defs
     id="defs16337" />
  <sodipodi:namedview
     id="base"
     pagecolor="#ffffff"
     bordercolor="#666666"
     borderopacity="1.0"
     inkscape:pageopacity="0.0"
     inkscape:pageshadow="2"
     inkscape:zoom="0.7"
     inkscape:cx="-11.713532"
     inkscape:cy="280.03739"
     inkscape:document-units="px"
     inkscape:current-layer="layer1"
     showgrid="false"
     fit-margin-top="0"
     fit-margin-left="0"
     fit-margin-right="0"
     fit-margin-bottom="0"
     inkscape:window-width="1366"
     inkscape:window-height="716"
     inkscape:window-x="-8"
     inkscape:window-y="-8"
     inkscape:window-maximized="1" />
  <metadata
     id="metadata16340">
    <rdf:RDF>
      <cc:Work
         rdf:about="">
        <dc:format>image/svg+xml</dc:format>
        <dc:type
           rdf:resource="http://purl.org/dc/dcmitype/StillImage" />
        <dc:title></dc:title>
      </cc:Work>
    </rdf:RDF>
  </metadata>
  <g
     inkscape:label="Layer 1"
     inkscape:groupmode="layer"
     id="layer1"
     transform="translate(300.82553,-78.010693)">
    <path
       sodipodi:nodetypes="cczccz"
       d="m -298.78216,251.47545 c -0.2963,165.50496 61.99305,238.23281 196.75019,333.25001 C 39.420501,491.66372 98.986021,413.79927 98.782683,251.14704 l -0.213944,-171.148134 -397.044499,0.338256 -0.3064,171.138288 z"
       style="fill:#aa0000;fill-opacity:1;stroke:#000000;stroke-width:4.02988148;stroke-linecap:butt;stroke-linejoin:miter;stroke-opacity:1"
       id="path3846"
       inkscape:connector-curvature="0" />
    <path
       style="fill:#ffffff;stroke:#000000;stroke-width:3;display:inline"
       d="m 93.356813,166.40209 c -37.93657,23.28625 -74.42944,57.85378 -96.1949097,84.5455 -51.7904203,63.51233 -82.6898003,105.60612 -114.2812533,180.625 -6.84323,-1.52855 -14.40091,-2.57993 -21.78125,-1.03125 -9.77509,2.0512 -23.4433,14.73461 -29.3125,23.84375 -5.8692,9.10914 -9.62585,21.0533 -6.90625,26.3125 6.91352,8.67315 29.48524,16.14586 29.8125,20.3125 0.32725,4.16665 -6.25979,13.24105 -7.5,12.90625 -0.5269,-0.1422 -2.81202,-0.88441 -2.625,-2.34375 0.10838,-0.84576 3.29916,-6.02055 0.0625,-7.59375 -18.38864,-11.50606 -41.74285,-22.56397 -38.375,-27.25 4.90956,-16.06569 14.51624,-33.48437 22.09375,-47.71875 48.5144,-91.13448 99.527293,-160.13802 157.707283,-203.65747 58.18,-43.51946 77.9771,-54.87525 107.30013,-58.95053 z M -121.4006,414.69759 c -2.36464,0 -4.28125,1.91661 -4.28125,4.28125 0,2.36464 1.91661,4.28125 4.28125,4.28125 2.36464,0 4.28125,-1.91661 4.28125,-4.28125 0,-2.36464 -1.91661,-4.28125 -4.28125,-4.28125 z"
       id="path3568"
       inkscape:connector-curvature="0"
       sodipodi:nodetypes="cscsscscsccszcsssss" />
    <path
       sodipodi:nodetypes="cccccccc"
       inkscape:connector-curvature="0"
       id="path16370"
       d="m -156.96179,427.78733 c 13.35023,-22.18055 25.24568,-45.26439 40.05718,-66.56055 31.516121,-48.87908 69.663615,-95.95588 114.582465,-133.06451 4.05033,-3.55651 7.62496,-6.95395 14.11823,-13.88067 -25.83514,17.17473 -48.48402,38.84395 -69.089834,61.97332 -15.15942,16.60925 -30.09542,33.46888 -42.903981,51.99446 -23.12748,31.83357 -48.48521,68.56454 -63.0836,101.16246 -0.77088,3.99773 5.78934,0.0896 6.31954,-1.62451 z"
       style="fill:#000000;display:inline" />
    <path
       sodipodi:nodetypes="cccccccc"
       inkscape:connector-curvature="0"
       id="path3612"
       d="m -158.42126,426.75687 c 13.35023,-22.18055 25.24568,-45.26439 40.05718,-66.56055 31.516123,-48.87908 69.663613,-95.95588 114.5824633,-133.06451 4.05032997,-3.55651 7.62496,-6.95395 14.1182297,-13.88067 -25.83514,17.17473 -48.48402,38.84395 -69.08983,61.97332 -15.15942,16.60925 -30.09542,33.46888 -42.903983,51.99446 -23.12748,31.83357 -48.48521,68.56454 -63.0836,101.16246 -0.77088,3.99773 5.78934,0.0896 6.31954,-1.62451 z"
       style="color:#000000;fill:#666666;fill-opacity:1;fill-rule:nonzero;stroke-width:1;stroke-linecap:butt;stroke-linejoin:miter;stroke-miterlimit:4;stroke-opacity:1;stroke-dasharray:none;stroke-dashoffset:0;marker:none;visibility:visible;display:inline;overflow:visible;enable-background:accumulate" />
    <path
       sodipodi:nodetypes="cscsscscsccszcsssss"
       inkscape:connector-curvature="0"
       id="path3475"
       d="m -293.35682,166.40209 c 37.93657,23.28625 74.42944,57.85378 96.19491,84.5455 51.79042,63.51233 82.6898,105.60612 114.281253,180.625 6.84323,-1.52855 14.40091,-2.57993 21.78125,-1.03125 9.77509,2.0512 23.4433,14.73461 29.3125,23.84375 5.8692,9.10914 9.62585,21.0533 6.90625,26.3125 -6.91352,8.67315 -29.48524,16.14586 -29.8125,20.3125 -0.32725,4.16665 6.25979,13.24105 7.5,12.90625 0.5269,-0.1422 2.81202,-0.88441 2.625,-2.34375 -0.10838,-0.84576 -3.29916,-6.02055 -0.0625,-7.59375 18.38864,-11.50606 41.7428503,-22.56397 38.3750003,-27.25 -4.9095603,-16.06569 -14.5162403,-33.48437 -22.0937503,-47.71875 -48.5144,-91.13448 -99.527293,-160.13802 -157.707283,-203.65747 -58.18,-43.51946 -77.9771,-54.87525 -107.30013,-58.95053 z m 214.757413,248.2955 c 2.36464,0 4.28125,1.91661 4.28125,4.28125 0,2.36464 -1.91661,4.28125 -4.28125,4.28125 -2.36464,0 -4.28125,-1.91661 -4.28125,-4.28125 0,-2.36464 1.91661,-4.28125 4.28125,-4.28125 z"
       style="color:#000000;fill:#ffffff;fill-opacity:1;fill-rule:nonzero;stroke:#000000;stroke-width:3;stroke-linecap:butt;stroke-linejoin:miter;stroke-miterlimit:4;stroke-opacity:1;stroke-dasharray:none;stroke-dashoffset:0;marker:none;visibility:visible;display:inline;overflow:visible;enable-background:accumulate" />
    <path
       style="fill:#000000;display:inline"
       d="m -44.588897,425.76702 c -13.35023,-22.18055 -25.24568,-45.26439 -40.05718,-66.56055 -31.516123,-48.87908 -69.663613,-95.95588 -114.582463,-133.06451 -4.05033,-3.55651 -7.62496,-6.95395 -14.11823,-13.88067 25.83514,17.17473 48.48402,38.84395 69.08983,61.97332 15.15942,16.60925 30.09542,33.46888 42.90398,51.99446 23.127483,31.83357 48.485213,68.56454 63.083603,101.16246 0.77088,3.99773 -5.78934,0.0896 -6.31954,-1.62451 z"
       id="path3610"
       inkscape:connector-curvature="0"
       sodipodi:nodetypes="cccccccc" />
    <path
       sodipodi:nodetypes="cccccccc"
       inkscape:connector-curvature="0"
       id="path3457"
       d="m -43.078747,424.75687 c -13.35023,-22.18055 -25.24568,-45.26439 -40.05718,-66.56055 -31.516123,-48.87908 -69.663613,-95.95588 -114.582463,-133.06451 -4.05033,-3.55651 -7.62496,-6.95395 -14.11823,-13.88067 25.83514,17.17473 48.48402,38.84395 69.08983,61.97332 15.15942,16.60925 30.09542,33.46888 42.903983,51.99446 23.12748,31.83357 48.48521,68.56454 63.0836,101.16246 0.77088,3.99773 -5.78934,0.0896 -6.31954,-1.62451 z"
       style="fill:#666666;display:inline" />
    <path
       id="path16721"
       d="m -100,104.96398 c -16.40382,0 -16.85113,2.37064 -16.85113,3.59243 0,1.24838 9.05517,12.33068 9.05517,28.09139 0,7.37922 -1.04929,12.11739 -2.4073,15.33268 -0.8581,-0.27493 -1.77241,-0.42591 -2.72211,-0.42591 -4.92135,0 -8.92554,3.98568 -8.92554,8.90703 0,0.92893 0.14282,1.82374 0.40739,2.66655 -3.22897,1.38663 -8.00604,2.48138 -15.53638,2.48138 -15.76071,0 -26.84301,-9.05517 -28.09139,-9.05517 -1.22179,0 -3.59243,0.44731 -3.59243,16.85113 0,16.40382 2.37064,16.85113 3.59243,16.85113 1.24838,0 12.33068,-9.05517 28.09139,-9.05517 7.53034,0 12.30741,1.09474 15.53638,2.48138 -0.26457,0.84281 -0.40739,1.73762 -0.40739,2.66655 0,4.92135 4.00419,8.90703 8.92554,8.90703 0.9497,0 1.86401,-0.15098 2.72211,-0.42591 1.35801,3.21529 2.4073,7.95346 2.4073,15.33267 0,15.76072 -9.05517,26.84302 -9.05517,28.09139 0,1.2218 0.44731,3.59244 16.85113,3.59244 16.40382,0 16.85113,-2.37064 16.85113,-3.59244 0,-1.24837 -9.05517,-12.33067 -9.05517,-28.09139 0,-7.39644 1.06316,-12.13562 2.42583,-15.35119 0.86096,0.27618 1.77016,0.44443 2.7221,0.44443 4.92136,0 8.90703,-3.98568 8.90703,-8.90703 0,-0.92893 -0.14389,-1.82374 -0.40739,-2.66655 3.22897,-1.38664 8.00604,-2.48138 15.53637,-2.48138 15.76071,0 26.84302,9.05517 28.09139,9.05517 1.2218,0 3.59244,-0.44731 3.59244,-16.85113 0,-16.40382 -2.37064,-16.85113 -3.59244,-16.85113 -1.24837,0 -12.33068,9.05517 -28.09139,9.05517 -7.53033,0 -12.3074,-1.09475 -15.53637,-2.48138 0.2635,-0.84281 0.40739,-1.73762 0.40739,-2.66655 0,-4.92135 -3.98567,-8.90703 -8.90703,-8.90703 -0.95194,0 -1.86114,0.16825 -2.7221,0.44443 -1.36267,-3.21557 -2.42583,-7.95475 -2.42583,-15.3512 0,-15.76071 9.05517,-26.84301 9.05517,-28.09139 0,-1.22179 -0.44731,-3.59243 -16.85113,-3.59243 z"
       style="color:#000000;fill:#ffffff;fill-opacity:1;fill-rule:nonzero;stroke:#000000;stroke-width:3;stroke-linecap:butt;stroke-linejoin:miter;stroke-miterlimit:4;stroke-opacity:1;stroke-dasharray:none;stroke-dashoffset:0;marker:none;visibility:visible;display:inline;overflow:visible;enable-background:accumulate"
       inkscape:connector-curvature="0" />
    <path
       sodipodi:nodetypes="ssssssssssssssssssss"
       inkscape:connector-curvature="0"
       id="path16723"
       d="m -114.73397,108.06983 c 1.38293,2.06013 10.53944,16.81529 8.9265,34.37913 -0.73985,8.05649 -3.88862,15.78673 -10.75776,20.33966 -8.8525,5.86752 -20.12345,5.71312 -30.16952,3.81466 -9.17522,-1.73389 -16.86759,-8.33765 -18.2173,-7.63646 -1.40729,0.7311 -1.19924,14.86452 -1.16662,21.94345 0.01,2.10932 0.70995,7.54026 1.18104,7.16835 10.29829,-8.12989 27.23562,-11.22151 41.16618,-7.45416 10.27926,2.7799 17.01916,12.45915 17.94445,22.89596 2.01973,22.78152 -8.66089,33.44146 -8.84937,34.55203 -0.40017,2.35788 31.12661,1.78363 29.32788,0.13344 -1.29342,-1.1866 -15.09577,-24.49942 -6.10466,-45.14826 3.93149,-9.02901 13.87508,-13.27712 23.4388,-13.92405 10.9083,-0.73788 21.43584,2.49984 30.722,7.49767 0.65016,0.34992 2.12175,1.9729 2.29718,1.26252 2.25912,-9.14818 1.30228,-29.4676 0.17127,-28.81204 -13.70548,7.94396 -31.69187,12.22697 -46.35624,5.19339 -8.12247,-3.89585 -12.24946,-12.68221 -13.00402,-21.58229 -1.57557,-18.58366 8.35221,-33.11317 8.77392,-34.68706 0.5003,-1.86712 -30.17794,-1.20843 -29.32373,0.0641 z"
       style="color:#000000;fill:#ffffff;fill-opacity:1;fill-rule:nonzero;stroke:#333333;stroke-width:2;stroke-linecap:butt;stroke-linejoin:miter;stroke-miterlimit:4;stroke-opacity:1;stroke-dasharray:none;stroke-dashoffset:0;marker:none;visibility:visible;display:inline;overflow:visible;enable-background:accumulate" />
    <path
       transform="matrix(0.59256722,0,0,0.59256722,250.0453,-280.80087)"
       d="m -564.33769,766.56927 a 26.334002,26.334002 0 1 1 -52.668,0 26.334002,26.334002 0 1 1 52.668,0 z"
       sodipodi:ry="26.334002"
       sodipodi:rx="26.334002"
       sodipodi:cy="766.56927"
       sodipodi:cx="-590.67169"
       id="path16725"
       style="color:#000000;fill:#ffffff;fill-opacity:1;fill-rule:nonzero;stroke:#333333;stroke-width:3.37514448;stroke-linecap:butt;stroke-linejoin:miter;stroke-miterlimit:4;stroke-opacity:1;stroke-dasharray:none;stroke-dashoffset:0;marker:none;visibility:visible;display:inline;overflow:visible;enable-background:accumulate"
       sodipodi:type="arc" />
  </g>
</svg>
