<?xml version="1.0" encoding="utf-8"?>
<!-- Generator: Adobe Illustrator 25.3.1, SVG Export Plug-In . SVG Version: 6.00 Build 0)  -->
<svg version="1.1" id="Layer_1" xmlns="http://www.w3.org/2000/svg" xmlns:xlink="http://www.w3.org/1999/xlink" x="0px" y="0px"
	 viewBox="0 0 97.4 95" style="enable-background:new 0 0 97.4 95;" xml:space="preserve">
<style type="text/css">
	.st0{fill-rule:evenodd;clip-rule:evenodd;fill:#221E1B;}
</style>
<path class="st0" d="M48.7,0C21.8,0,0,21.8,0,48.7c0,21.5,13.9,39.8,33.3,46.2c2.4,0.4,3.3-1.1,3.3-2.3c0-1.2,0-4.2-0.1-8.3
	c-13.5,2.9-16.4-6.5-16.4-6.5c-2.2-5.6-5.4-7.1-5.4-7.1c-4.4-3,0.3-3,0.3-3c4.9,0.3,7.5,5,7.5,5c4.3,7.4,11.4,5.3,14.2,4
	c0.4-3.1,1.7-5.3,3.1-6.5C29,69,17.6,64.8,17.6,46.1c0-5.3,1.9-9.7,5-13.1c-0.5-1.2-2.2-6.2,0.5-12.9c0,0,4.1-1.3,13.4,5
	c3.9-1.1,8-1.6,12.2-1.6c4.1,0,8.3,0.6,12.2,1.6c9.3-6.3,13.4-5,13.4-5c2.7,6.7,1,11.7,0.5,12.9c3.1,3.4,5,7.7,5,13.1
	c0,18.7-11.4,22.8-22.2,24c1.7,1.5,3.3,4.5,3.3,9c0,6.5-0.1,11.8-0.1,13.4c0,1.3,0.9,2.8,3.3,2.3c19.3-6.5,33.3-24.7,33.3-46.2
	C97.4,21.8,75.6,0,48.7,0z"/>
</svg>
